#
#
#

mtllib Fighter_obj.mtl


#
#  Mesh Mesh Mesh
#
g  Mesh Mesh Mesh

v 1.887693 -0.130191 2.165718
v 1.209306 -0.130191 0.851880
v 0.193845 -0.130191 1.698804
v 0.193842 -0.130191 0.851880
v 1.887693 -0.130191 0.004953
v 0.193842 0.132726 0.004953
v 1.209306 -0.130191 -0.851880
v 0.193842 -0.130191 -0.851880
v 1.887690 -0.130191 -2.165718
v 0.193842 -0.130191 -1.698804
v -1.887696 -0.130191 0.004953
v -0.706926 0.332547 0.004953
v 1.887693 -0.332547 2.165718
v 0.193845 -0.332547 1.698804
v 1.209306 -0.332547 0.851880
v 0.193842 -0.332547 0.851880
v 0.193842 -0.332547 0.004953
v 1.887693 -0.332547 0.004953
v 0.193842 -0.332547 -0.841974
v 1.209306 -0.332547 -0.841974
v 0.193845 -0.332547 -1.688898
v 1.887690 -0.332547 -2.155812
v -1.887696 -0.332547 0.004953
v -1.260219 -0.213849 1.105884
v -1.260219 -0.187779 1.131957
v -0.367194 -0.187779 1.131957
v -0.367194 -0.213849 1.105884
v -1.260219 -0.178233 1.167573
v -0.367194 -0.178233 1.167573
v -1.260219 -0.187779 1.203189
v -0.367194 -0.187779 1.203189
v -1.260219 -0.213849 1.229259
v -0.367194 -0.213849 1.229259
v -1.260219 -0.249468 1.238802
v -0.367194 -0.249468 1.238802
v -1.260219 -0.285081 1.229259
v -0.367194 -0.285081 1.229259
v -1.260219 -0.311154 1.203189
v -0.367194 -0.311154 1.203189
v -1.260219 -0.320700 1.167573
v -0.367194 -0.320700 1.167573
v -1.260219 -0.311154 1.131957
v -0.367194 -0.311154 1.131957
v -1.260219 -0.285081 1.105884
v -0.367194 -0.285081 1.105884
v -1.260219 -0.249468 1.096341
v -0.367194 -0.249468 1.096341
v -1.260219 -0.249468 1.167573
v -0.367194 -0.249468 1.167573
v -1.260219 -0.213849 0.901587
v -1.260219 -0.187779 0.927660
v -0.367194 -0.187779 0.927660
v -0.367194 -0.213849 0.901587
v -1.260219 -0.178233 0.963276
v -0.367194 -0.178233 0.963276
v -1.260219 -0.187779 0.998892
v -0.367194 -0.187779 0.998892
v -1.260219 -0.213849 1.024962
v -0.367194 -0.213849 1.024962
v -1.260219 -0.249468 1.034505
v -0.367194 -0.249468 1.034505
v -1.260219 -0.285081 1.024962
v -0.367194 -0.285081 1.024962
v -1.260219 -0.311154 0.998892
v -0.367194 -0.311154 0.998892
v -1.260219 -0.320700 0.963276
v -0.367194 -0.320700 0.963276
v -1.260219 -0.311154 0.927660
v -0.367194 -0.311154 0.927660
v -1.260219 -0.285081 0.901587
v -0.367194 -0.285081 0.901587
v -1.260219 -0.249468 0.892044
v -0.367194 -0.249468 0.892044
v -1.260219 -0.249468 0.963276
v -0.367194 -0.249468 0.963276
v -1.260219 -0.213849 -1.193937
v -1.260219 -0.187779 -1.167864
v -0.367194 -0.187779 -1.167864
v -0.367194 -0.213849 -1.193937
v -1.260219 -0.178233 -1.132248
v -0.367194 -0.178233 -1.132248
v -1.260219 -0.187779 -1.096632
v -0.367194 -0.187779 -1.096632
v -1.260219 -0.213849 -1.070562
v -0.367194 -0.213849 -1.070562
v -1.260219 -0.249468 -1.061019
v -0.367194 -0.249468 -1.061019
v -1.260219 -0.285081 -1.070562
v -0.367194 -0.285081 -1.070562
v -1.260219 -0.311154 -1.096632
v -0.367194 -0.311154 -1.096632
v -1.260219 -0.320700 -1.132248
v -0.367194 -0.320700 -1.132248
v -1.260219 -0.311154 -1.167864
v -0.367194 -0.311154 -1.167864
v -1.260219 -0.285081 -1.193937
v -0.367194 -0.285081 -1.193937
v -1.260219 -0.249468 -1.203480
v -0.367194 -0.249468 -1.203480
v -1.260219 -0.249468 -1.132248
v -0.367194 -0.249468 -1.132248
v -1.260219 -0.213849 -0.989640
v -1.260219 -0.187779 -0.963567
v -0.367194 -0.187779 -0.963567
v -0.367194 -0.213849 -0.989640
v -1.260219 -0.178233 -0.927951
v -0.367194 -0.178233 -0.927951
v -1.260219 -0.187779 -0.892335
v -0.367194 -0.187779 -0.892335
v -1.260219 -0.213849 -0.866265
v -0.367194 -0.213849 -0.866265
v -1.260219 -0.249468 -0.856722
v -0.367194 -0.249468 -0.856722
v -1.260219 -0.285081 -0.866265
v -0.367194 -0.285081 -0.866265
v -1.260219 -0.311154 -0.892335
v -0.367194 -0.311154 -0.892335
v -1.260219 -0.320700 -0.927951
v -0.367194 -0.320700 -0.927951
v -1.260219 -0.311154 -0.963567
v -0.367194 -0.311154 -0.963567
v -1.260219 -0.285081 -0.989640
v -0.367194 -0.285081 -0.989640
v -1.260219 -0.249468 -0.999183
v -0.367194 -0.249468 -0.999183
v -1.260219 -0.249468 -0.927951
v -0.367194 -0.249468 -0.927951
vn 0.196964 0.551626 0.810502
vn 0.566890 0.823372 0.026361
vn -0.363606 0.713842 0.598515
vn -0.013551 0.964441 0.263952
vn 0.871334 0.490688 0.001552
vn 0.124278 0.992247 0.001313
vn 0.565780 0.824195 -0.024404
vn -0.013796 0.965078 -0.261600
vn 0.493425 0.772617 -0.399492
vn -0.370118 0.591313 -0.716493
vn -0.470854 0.882210 0.001592
vn -0.039845 0.999203 0.002265
vn 0.833698 -0.551626 0.025630
vn -0.276652 -0.713842 0.643345
vn 0.514957 -0.840910 0.166405
vn 0.000000 -1.000000 0.000000
vn 0.461580 -0.887099 0.000000
vn 0.619313 -0.759579 -0.198725
vn -0.245348 -0.844622 -0.475835
vn 0.650244 -0.547745 -0.526458
vn -0.530413 -0.847739 0.000497
vn -0.566503 0.473905 -0.674158
vn -0.566494 0.747478 -0.346932
vn 0.566494 0.674185 -0.473877
vn 0.566503 0.346906 -0.747483
vn -0.566506 0.820788 0.073331
vn 0.566506 0.820788 -0.073331
vn -0.566496 0.674165 0.473903
vn 0.566496 0.747470 0.346946
vn -0.566501 0.346894 0.747490
vn 0.566501 0.473879 0.674178
vn -0.566499 -0.073326 0.820794
vn 0.566499 0.073291 0.820797
vn -0.566496 -0.473864 0.674192
vn 0.566496 -0.346903 0.747489
vn -0.566499 -0.747461 0.346959
vn 0.566499 -0.674145 0.473928
vn -0.566506 -0.820788 -0.073331
vn 0.566506 -0.820788 0.073331
vn -0.566496 -0.674165 -0.473902
vn 0.566496 -0.747470 -0.346946
vn -0.566499 -0.346915 -0.747482
vn 0.566499 -0.473889 -0.674172
vn -0.566499 0.073291 -0.820797
vn 0.566499 -0.073325 -0.820794
vn -1.000000 0.000000 0.000000
vn 1.000000 0.000000 0.000000
vn -0.566503 0.473904 -0.674158
vn 0.566494 0.674185 -0.473878
vn 0.566503 0.346907 -0.747482
vn 0.566506 0.820788 -0.073330
vn -0.566506 -0.820788 -0.073330
vn -0.566496 -0.674165 -0.473903
vn 0.566496 -0.747469 -0.346946
vn -0.566499 -0.346916 -0.747481
vn 0.566499 -0.073326 -0.820794
vn -0.566504 0.473904 -0.674158
vn -0.566493 0.747478 -0.346932
vn 0.566494 0.674184 -0.473878
vn -0.566506 0.820788 0.073330
vn -0.566497 0.674164 0.473903
vn 0.566496 0.747470 0.346945
vn -0.566501 0.346893 0.747490
vn -0.566499 -0.073325 0.820794
vn 0.566496 -0.346901 0.747490
vn 0.566506 -0.820788 0.073330
vn -0.566499 -0.346914 -0.747482
vn -0.566501 0.346893 0.747491
vn -0.566503 0.473905 -0.674157
vn 0.566503 0.346908 -0.747482
vn 0.566499 -0.473890 -0.674172
vt 0.037830 0.565061
vt 0.193784 0.624696
vt 0.104337 0.743645
vt 0.196007 0.739221
vt 0.294915 0.561155
vt 0.297208 0.735638
vt 0.398656 0.621797
vt 0.399077 0.736525
vt 0.554433 0.563024
vt 0.489344 0.739065
vt 0.304380 0.968022
vt 0.300084 0.830243
vt 0.871773 0.048628
vt 0.813968 0.252159
vt 0.710447 0.048628
vt 0.713916 0.256078
vt 0.612588 0.260684
vt 0.602974 0.048628
vt 0.510598 0.265921
vt 0.501590 0.048628
vt 0.408544 0.271612
vt 0.340194 0.048628
vt 0.626635 0.510455
vt 0.805165 0.799953
vt 0.804689 0.664354
vt 0.823205 0.665742
vt 0.823526 0.799909
vt 0.947530 0.347887
vt 0.948069 0.041801
vt 0.983272 0.041859
vt 0.982759 0.347120
vt 0.822470 0.565667
vt 0.840842 0.568618
vt 0.836590 0.467641
vt 0.855204 0.467739
vt 0.833230 0.332118
vt 0.851857 0.330834
vt 0.927246 0.081074
vt 0.922406 0.367580
vt 0.889443 0.366432
vt 0.894247 0.080050
vt 0.940430 0.815391
vt 0.975728 0.815923
vt 0.919094 0.804775
vt 0.886127 0.804550
vt 0.248786 0.521354
vt 0.242259 0.521354
vt 0.242260 0.297793
vt 0.248787 0.297793
vt 0.233343 0.521354
vt 0.233344 0.297793
vt 0.224427 0.521354
vt 0.224428 0.297793
vt 0.217900 0.521354
vt 0.217901 0.297793
vt 0.208984 0.521354
vt 0.208984 0.297793
vt 0.200069 0.521354
vt 0.200069 0.297793
vt 0.193542 0.521354
vt 0.193542 0.297793
vt 0.184626 0.521354
vt 0.184626 0.297793
vt 0.175710 0.521354
vt 0.175710 0.297793
vt 0.169183 0.521354
vt 0.169183 0.297793
vt 0.160268 0.521354
vt 0.160268 0.297793
vt 0.151351 0.521354
vt 0.151351 0.297793
vt 0.898556 0.905321
vt 0.890287 0.897053
vt 0.909851 0.885756
vt 0.909851 0.908349
vt 0.921147 0.905321
vt 0.929416 0.897053
vt 0.932442 0.885756
vt 0.929416 0.874462
vt 0.921147 0.866192
vt 0.909851 0.863165
vt 0.898556 0.866192
vt 0.890287 0.874462
vt 0.887260 0.885756
vt 0.868730 0.897053
vt 0.860461 0.905321
vt 0.849165 0.885756
vt 0.849165 0.908349
vt 0.837870 0.905321
vt 0.829601 0.897053
vt 0.826574 0.885756
vt 0.829601 0.874462
vt 0.837870 0.866192
vt 0.849165 0.863165
vt 0.860461 0.866192
vt 0.868730 0.874462
vt 0.871756 0.885756
vt 0.116024 0.521513
vt 0.109581 0.521513
vt 0.109581 0.300817
vt 0.116024 0.300817
vt 0.100779 0.521513
vt 0.100779 0.300817
vt 0.091977 0.521513
vt 0.091977 0.300817
vt 0.085534 0.521513
vt 0.085534 0.300817
vt 0.076732 0.521513
vt 0.076731 0.300817
vt 0.067930 0.521513
vt 0.067930 0.300817
vt 0.061487 0.521513
vt 0.061487 0.300817
vt 0.052685 0.521513
vt 0.052685 0.300817
vt 0.043884 0.521513
vt 0.043884 0.300817
vt 0.037440 0.521513
vt 0.037440 0.300817
vt 0.028639 0.521513
vt 0.028639 0.300817
vt 0.019837 0.521513
vt 0.019837 0.300817
vt 0.777184 0.905321
vt 0.768915 0.897053
vt 0.788480 0.885756
vt 0.788480 0.908349
vt 0.799775 0.905321
vt 0.808044 0.897053
vt 0.811070 0.885756
vt 0.808044 0.874462
vt 0.799775 0.866192
vt 0.788480 0.863165
vt 0.777184 0.866192
vt 0.768915 0.874462
vt 0.765888 0.885756
vt 0.747358 0.897053
vt 0.739089 0.905321
vt 0.727793 0.885756
vt 0.727793 0.908349
vt 0.716498 0.905321
vt 0.708229 0.897053
vt 0.705202 0.885756
vt 0.708229 0.874462
vt 0.716498 0.866192
vt 0.727793 0.863165
vt 0.739089 0.866192
vt 0.747358 0.874462
vt 0.750384 0.885756
vt 0.252363 0.277011
vt 0.245139 0.277011
vt 0.245139 0.029571
vt 0.252363 0.029571
vt 0.235271 0.277011
vt 0.235271 0.029571
vt 0.225403 0.277011
vt 0.225403 0.029571
vt 0.218178 0.277011
vt 0.218178 0.029571
vt 0.208309 0.277011
vt 0.208309 0.029571
vt 0.198442 0.277011
vt 0.198442 0.029571
vt 0.191218 0.277011
vt 0.191218 0.029571
vt 0.181349 0.277011
vt 0.181349 0.029571
vt 0.171481 0.277011
vt 0.171481 0.029571
vt 0.164257 0.277011
vt 0.164257 0.029571
vt 0.154389 0.277011
vt 0.154390 0.029571
vt 0.144520 0.277011
vt 0.144521 0.029571
vt 0.655812 0.905321
vt 0.647543 0.897053
vt 0.667107 0.885756
vt 0.667107 0.908349
vt 0.678403 0.905321
vt 0.686672 0.897053
vt 0.689699 0.885756
vt 0.686672 0.874462
vt 0.678403 0.866192
vt 0.667107 0.863165
vt 0.655812 0.866192
vt 0.647543 0.874462
vt 0.644517 0.885756
vt 0.625986 0.900195
vt 0.617717 0.908463
vt 0.606421 0.888898
vt 0.606421 0.911490
vt 0.595126 0.908463
vt 0.586857 0.900195
vt 0.583831 0.888898
vt 0.586857 0.877603
vt 0.595126 0.869334
vt 0.606421 0.866307
vt 0.617717 0.869334
vt 0.625986 0.877603
vt 0.629013 0.888898
vt 0.129386 0.278030
vt 0.121841 0.278030
vt 0.121841 0.019606
vt 0.129386 0.019606
vt 0.111535 0.278030
vt 0.111535 0.019606
vt 0.101228 0.278030
vt 0.101228 0.019606
vt 0.093684 0.278030
vt 0.093684 0.019607
vt 0.083377 0.278030
vt 0.083377 0.019606
vt 0.073071 0.278030
vt 0.073071 0.019607
vt 0.065526 0.278030
vt 0.065526 0.019606
vt 0.055220 0.278030
vt 0.055220 0.019606
vt 0.044913 0.278030
vt 0.044913 0.019606
vt 0.037369 0.278030
vt 0.037369 0.019606
vt 0.027063 0.278030
vt 0.027063 0.019606
vt 0.016756 0.278030
vt 0.016756 0.019606
vt 0.534440 0.908463
vt 0.526171 0.900195
vt 0.545736 0.888898
vt 0.545736 0.911490
vt 0.557031 0.908463
vt 0.565300 0.900195
vt 0.568326 0.888898
vt 0.565300 0.877603
vt 0.557031 0.869334
vt 0.545736 0.866307
vt 0.534440 0.869334
vt 0.526171 0.877603
vt 0.523144 0.888898
vt 0.504614 0.900195
vt 0.496345 0.908463
vt 0.485050 0.888898
vt 0.485050 0.911490
vt 0.473754 0.908463
vt 0.465485 0.900195
vt 0.462458 0.888898
vt 0.465485 0.877603
vt 0.473754 0.869334
vt 0.485050 0.866307
vt 0.496345 0.869334
vt 0.504614 0.877603
vt 0.507641 0.888898
f 1/1/1 2/2/2 3/3/3
f 2/2/2 4/4/4 3/3/3
f 2/2/2 5/5/5 6/6/6
f 2/2/2 6/6/6 4/4/4
f 5/5/5 7/7/7 6/6/6
f 7/7/7 8/8/8 6/6/6
f 7/7/7 9/9/9 10/10/10
f 7/7/7 10/10/10 8/8/8
f 3/3/3 4/4/4 11/11/11
f 4/4/4 6/6/6 12/12/12
f 12/12/12 8/8/8 11/11/11
f 8/8/8 10/10/10 11/11/11
f 13/13/13 14/14/14 15/15/15
f 14/14/14 16/16/16 15/15/15
f 15/15/15 16/16/16 17/17/16
f 15/15/15 17/17/16 18/18/17
f 18/18/17 17/17/16 19/19/16
f 18/18/17 19/19/16 20/20/18
f 20/20/18 19/19/16 21/21/19
f 20/20/18 21/21/19 22/22/20
f 14/14/14 23/23/21 16/16/16
f 16/16/16 23/23/21 17/17/16
f 17/17/16 23/23/21 19/19/16
f 19/19/16 23/23/21 21/21/19
f 13/24/13 15/25/15 2/26/2
f 13/24/13 2/26/2 1/27/1
f 14/28/14 13/29/13 1/30/1
f 14/28/14 1/30/1 3/31/3
f 15/25/15 18/32/17 5/33/5
f 15/25/15 5/33/5 2/26/2
f 18/32/17 20/34/18 5/33/5
f 20/34/18 7/35/7 5/33/5
f 20/34/18 22/36/20 7/35/7
f 22/36/20 9/37/9 7/35/7
f 22/38/20 21/39/19 10/40/10
f 22/38/20 10/40/10 9/41/9
f 23/42/21 14/28/14 3/31/3
f 23/42/21 3/31/3 11/43/11
f 21/39/19 23/44/21 10/40/10
f 23/44/21 11/45/11 10/40/10
f 4/4/4 12/12/12 11/11/11
f 6/6/6 8/8/8 12/12/12
f 24/46/22 25/47/23 26/48/24
f 24/46/22 26/48/24 27/49/25
f 25/47/23 28/50/26 29/51/27
f 25/47/23 29/51/27 26/48/24
f 28/50/26 30/52/28 31/53/29
f 28/50/26 31/53/29 29/51/27
f 30/52/28 32/54/30 33/55/31
f 30/52/28 33/55/31 31/53/29
f 32/54/30 34/56/32 35/57/33
f 32/54/30 35/57/33 33/55/31
f 34/56/32 36/58/34 37/59/35
f 34/56/32 37/59/35 35/57/33
f 36/58/34 38/60/36 39/61/37
f 36/58/34 39/61/37 37/59/35
f 38/60/36 40/62/38 41/63/39
f 38/60/36 41/63/39 39/61/37
f 40/62/38 42/64/40 43/65/41
f 40/62/38 43/65/41 41/63/39
f 42/64/40 44/66/42 45/67/43
f 42/64/40 45/67/43 43/65/41
f 44/66/42 46/68/44 47/69/45
f 44/66/42 47/69/45 45/67/43
f 46/68/44 24/70/22 27/71/25
f 46/68/44 27/71/25 47/69/45
f 25/72/23 24/73/22 48/74/46
f 28/75/26 25/72/23 48/74/46
f 30/76/28 28/75/26 48/74/46
f 32/77/30 30/76/28 48/74/46
f 34/78/32 32/77/30 48/74/46
f 36/79/34 34/78/32 48/74/46
f 38/80/36 36/79/34 48/74/46
f 40/81/38 38/80/36 48/74/46
f 42/82/40 40/81/38 48/74/46
f 44/83/42 42/82/40 48/74/46
f 46/84/44 44/83/42 48/74/46
f 24/73/22 46/84/44 48/74/46
f 27/85/25 26/86/24 49/87/47
f 26/86/24 29/88/27 49/87/47
f 29/88/27 31/89/29 49/87/47
f 31/89/29 33/90/31 49/87/47
f 33/90/31 35/91/33 49/87/47
f 35/91/33 37/92/35 49/87/47
f 37/92/35 39/93/37 49/87/47
f 39/93/37 41/94/39 49/87/47
f 41/94/39 43/95/41 49/87/47
f 43/95/41 45/96/43 49/87/47
f 45/96/43 47/97/45 49/87/47
f 47/97/45 27/85/25 49/87/47
f 50/98/48 51/99/23 52/100/49
f 50/98/48 52/100/49 53/101/50
f 51/99/23 54/102/26 55/103/51
f 51/99/23 55/103/51 52/100/49
f 54/102/26 56/104/28 57/105/29
f 54/102/26 57/105/29 55/103/51
f 56/104/28 58/106/30 59/107/31
f 56/104/28 59/107/31 57/105/29
f 58/106/30 60/108/32 61/109/33
f 58/106/30 61/109/33 59/107/31
f 60/108/32 62/110/34 63/111/35
f 60/108/32 63/111/35 61/109/33
f 62/110/34 64/112/36 65/113/37
f 62/110/34 65/113/37 63/111/35
f 64/112/36 66/114/52 67/115/39
f 64/112/36 67/115/39 65/113/37
f 66/114/52 68/116/53 69/117/54
f 66/114/52 69/117/54 67/115/39
f 68/116/53 70/118/55 71/119/43
f 68/116/53 71/119/43 69/117/54
f 70/118/55 72/120/44 73/121/56
f 70/118/55 73/121/56 71/119/43
f 72/120/44 50/122/48 53/123/50
f 72/120/44 53/123/50 73/121/56
f 51/124/23 50/125/48 74/126/46
f 54/127/26 51/124/23 74/126/46
f 56/128/28 54/127/26 74/126/46
f 58/129/30 56/128/28 74/126/46
f 60/130/32 58/129/30 74/126/46
f 62/131/34 60/130/32 74/126/46
f 64/132/36 62/131/34 74/126/46
f 66/133/52 64/132/36 74/126/46
f 68/134/53 66/133/52 74/126/46
f 70/135/55 68/134/53 74/126/46
f 72/136/44 70/135/55 74/126/46
f 50/125/48 72/136/44 74/126/46
f 53/137/50 52/138/49 75/139/47
f 52/138/49 55/140/51 75/139/47
f 55/140/51 57/141/29 75/139/47
f 57/141/29 59/142/31 75/139/47
f 59/142/31 61/143/33 75/139/47
f 61/143/33 63/144/35 75/139/47
f 63/144/35 65/145/37 75/139/47
f 65/145/37 67/146/39 75/139/47
f 67/146/39 69/147/54 75/139/47
f 69/147/54 71/148/43 75/139/47
f 71/148/43 73/149/56 75/139/47
f 73/149/56 53/137/50 75/139/47
f 76/150/57 77/151/58 78/152/59
f 76/150/57 78/152/59 79/153/50
f 77/151/58 80/154/60 81/155/27
f 77/151/58 81/155/27 78/152/59
f 80/154/60 82/156/61 83/157/62
f 80/154/60 83/157/62 81/155/27
f 82/156/61 84/158/63 85/159/31
f 82/156/61 85/159/31 83/157/62
f 84/158/63 86/160/64 87/161/33
f 84/158/63 87/161/33 85/159/31
f 86/160/64 88/162/34 89/163/65
f 86/160/64 89/163/65 87/161/33
f 88/162/34 90/164/36 91/165/37
f 88/162/34 91/165/37 89/163/65
f 90/164/36 92/166/38 93/167/66
f 90/164/36 93/167/66 91/165/37
f 92/166/38 94/168/53 95/169/54
f 92/166/38 95/169/54 93/167/66
f 94/168/53 96/170/67 97/171/43
f 94/168/53 97/171/43 95/169/54
f 96/170/67 98/172/44 99/173/56
f 96/170/67 99/173/56 97/171/43
f 98/172/44 76/174/48 79/175/50
f 98/172/44 79/175/50 99/173/56
f 77/176/58 76/177/57 100/178/46
f 80/179/60 77/176/58 100/178/46
f 82/180/61 80/179/60 100/178/46
f 84/181/68 82/180/61 100/178/46
f 86/182/64 84/181/63 100/178/46
f 88/183/34 86/182/64 100/178/46
f 90/184/36 88/183/34 100/178/46
f 92/185/38 90/184/36 100/178/46
f 94/186/53 92/185/38 100/178/46
f 96/187/67 94/186/53 100/178/46
f 98/188/44 96/187/67 100/178/46
f 76/177/57 98/188/44 100/178/46
f 79/189/50 78/190/59 101/191/47
f 78/190/59 81/192/27 101/191/47
f 81/192/27 83/193/62 101/191/47
f 83/193/62 85/194/31 101/191/47
f 85/194/31 87/195/33 101/191/47
f 87/195/33 89/196/65 101/191/47
f 89/196/65 91/197/37 101/191/47
f 91/197/37 93/198/66 101/191/47
f 93/198/66 95/199/54 101/191/47
f 95/199/54 97/200/43 101/191/47
f 97/200/43 99/201/56 101/191/47
f 99/201/56 79/189/50 101/191/47
f 102/202/69 103/203/23 104/204/24
f 102/202/69 104/204/24 105/205/70
f 103/203/23 106/206/26 107/207/27
f 103/203/23 107/207/27 104/204/24
f 106/206/26 108/208/28 109/209/29
f 106/206/26 109/209/29 107/207/27
f 108/208/28 110/210/30 111/211/31
f 108/208/28 111/211/31 109/209/29
f 110/210/30 112/212/32 113/213/33
f 110/210/30 113/213/33 111/211/31
f 112/212/32 114/214/34 115/215/35
f 112/212/32 115/215/35 113/213/33
f 114/214/34 116/216/36 117/217/37
f 114/214/34 117/217/37 115/215/35
f 116/216/36 118/218/38 119/219/39
f 116/216/36 119/219/39 117/217/37
f 118/218/38 120/220/40 121/221/41
f 118/218/38 121/221/41 119/219/39
f 120/220/40 122/222/55 123/223/71
f 120/220/40 123/223/71 121/221/41
f 122/222/55 124/224/44 125/225/56
f 122/222/55 125/225/56 123/223/71
f 124/224/44 102/226/69 105/227/70
f 124/224/44 105/227/70 125/225/56
f 103/228/23 102/229/69 126/230/46
f 106/231/26 103/228/23 126/230/46
f 108/232/28 106/231/26 126/230/46
f 110/233/30 108/232/28 126/230/46
f 112/234/32 110/233/30 126/230/46
f 114/235/34 112/234/32 126/230/46
f 116/236/36 114/235/34 126/230/46
f 118/237/38 116/236/36 126/230/46
f 120/238/40 118/237/38 126/230/46
f 122/239/55 120/238/40 126/230/46
f 124/240/44 122/239/55 126/230/46
f 102/229/69 124/240/44 126/230/46
f 105/241/70 104/242/24 127/243/47
f 104/242/24 107/244/27 127/243/47
f 107/244/27 109/245/29 127/243/47
f 109/245/29 111/246/31 127/243/47
f 111/246/31 113/247/33 127/243/47
f 113/247/33 115/248/35 127/243/47
f 115/248/35 117/249/37 127/243/47
f 117/249/37 119/250/39 127/243/47
f 119/250/39 121/251/41 127/243/47
f 121/251/41 123/252/71 127/243/47
f 123/252/71 125/253/56 127/243/47
f 125/253/56 105/241/70 127/243/47
