# This file uses centimeters as units for non-parametric coordinates.

v 3.500000 5.135938 0.000000
v 0.402813 0.880362 0.000000
v 3.500000 2.685939 0.000000
v 0.842954 0.072409 0.000000
v 0.556251 0.240626 0.000000
v 3.488714 0.733535 0.000000
v 1.400000 1.000000 0.000000
v 3.236066 0.146438 0.000000
v 2.467077 -0.000582 0.000000
v 3.434279 0.439881 0.000000
v 2.451563 2.160939 0.000000
v 2.500000 1.000000 0.000000
v 1.400000 5.900000 0.000000
v 2.462501 4.615625 0.000000
v 0.400000 5.725643 0.000000
v 0.410958 6.166129 0.000000
v 0.548124 6.644802 0.000000
v 0.842729 6.837906 0.000000
v 1.433532 6.900361 0.000000
v 3.496994 6.019279 0.000000
v 3.424611 6.459799 0.000000
v 2.500000 5.900000 0.000000
v 2.614724 6.897509 0.000000
v 3.208327 6.753500 0.000000
vt 0.999800 0.744333
vt 0.000906 0.127660
vt 0.999800 0.389305
vt 0.142857 0.010571
vt 0.050397 0.034956
vt 0.996161 0.106383
vt 0.322519 0.144996
vt 0.914723 0.021277
vt 0.666667 0.000013
vt 0.978604 0.063830
vt 0.661663 0.313227
vt 0.677285 0.144996
vt 0.322519 0.855053
vt 0.665191 0.668935
vt 0.000004 0.829787
vt 0.003558 0.893617
vt 0.047619 0.963031
vt 0.142857 0.990860
vt 0.333333 0.999997
vt 0.998972 0.872340
vt 0.975466 0.936170
vt 0.677285 0.855053
vt 0.714286 0.999609
vt 0.905716 0.978723
vn 0.000000 0.000000 -1.000000
vn 0.000000 0.000000 -1.000000
vn 0.000000 0.000000 -1.000000
vn 0.000000 0.000000 -1.000000
vn 0.000000 0.000000 -1.000000
vn 0.000000 0.000000 -1.000000
vn 0.000000 0.000000 -1.000000
vn 0.000000 0.000000 -1.000000
vn 0.000000 0.000000 -1.000000
vn 0.000000 0.000000 -1.000000
vn 0.000000 0.000000 -1.000000
vn 0.000000 0.000000 -1.000000
vn 0.000000 0.000000 -1.000000
vn 0.000000 0.000000 -1.000000
vn 0.000000 0.000000 -1.000000
vn 0.000000 0.000000 -1.000000
vn 0.000000 0.000000 -1.000000
vn 0.000000 0.000000 -1.000000
vn 0.000000 0.000000 -1.000000
vn 0.000000 0.000000 -1.000000
vn 0.000000 0.000000 -1.000000
vn 0.000000 0.000000 -1.000000
vn 0.000000 0.000000 -1.000000
vn 0.000000 0.000000 -1.000000
f 5/5/1 7/7/2 4/4/3
f 2/2/4 7/7/2 5/5/1
f 9/9/5 4/4/3 7/7/2
f 15/15/6 7/7/2 2/2/4
f 10/10/7 12/12/8 6/6/9
f 12/12/8 9/9/5 7/7/2
f 9/9/5 12/12/8 8/8/10
f 8/8/10 12/12/8 10/10/7
f 6/6/9 12/12/8 3/3/11
f 12/12/8 11/11/12 3/3/11
f 15/15/6 13/13/13 7/7/2
f 1/1/14 14/14/15 22/22/16
f 13/13/13 15/15/6 16/16/17
f 16/16/17 17/17/18 13/13/13
f 13/13/13 17/17/18 18/18/19
f 19/19/20 13/13/13 18/18/19
f 1/1/14 22/22/16 20/20/21
f 13/13/13 19/19/20 22/22/16
f 19/19/20 23/23/22 22/22/16
f 22/22/16 21/21/23 20/20/21
f 23/23/22 24/24/24 22/22/16
f 21/21/23 22/22/16 24/24/24
v 5.300000 -0.000000 0.000000
v 5.300000 5.900000 0.000000
v 4.300000 -0.000000 0.000000
v 6.793751 -0.000000 0.000000
v 7.889064 -0.000000 0.000000
v 6.364980 6.900217 0.000000
v 5.300000 2.685939 0.000000
v 5.546876 2.785939 0.000000
v 5.300000 3.821875 0.000000
v 4.300000 6.900000 0.000000
v 6.432813 3.254688 0.000000
v 6.952824 6.827519 0.000000
v 6.362501 4.376564 0.000000
v 7.400000 3.721875 0.000000
v 6.796764 6.867930 0.000000
v 7.391524 6.116038 0.000000
v 6.484643 6.898685 0.000000
v 6.640693 6.889453 0.000000
v 7.400971 5.647485 0.000000
v 6.400000 5.900000 0.000000
v 7.398553 5.959227 0.000000
v 7.335041 6.429702 0.000000
v 7.372166 6.272868 0.000000
v 7.264995 6.591385 0.000000
v 7.108832 6.586514 0.000000
v 7.124644 6.743338 0.000000
vt 0.278624 0.000000
vt 0.278624 0.855053
vt 0.000000 0.000000
vt 0.694819 0.000000
vt 1.000000 0.000000
vt 0.575353 1.000000
vt 0.278624 0.389258
vt 0.347410 0.403750
vt 0.278624 0.553882
vt 0.000000 0.999977
vt 0.594253 0.471683
vt 0.739130 0.989457
vt 0.574663 0.634270
vt 0.863735 0.539390
vt 0.695652 0.995311
vt 0.861410 0.886364
vt 0.608696 0.999809
vt 0.652174 0.998451
vt 0.864003 0.818457
vt 0.585111 0.855053
vt 0.863332 0.863636
vt 0.845627 0.931818
vt 0.855984 0.909091
vt 0.826087 0.955242
vt 0.782609 0.954545
vt 0.787014 0.977273
vn 0.000000 0.000000 -1.000000
vn 0.000000 0.000000 -1.000000
vn 0.000000 0.000000 -1.000000
vn 0.000000 0.000000 -1.000000
vn 0.000000 0.000000 -1.000000
vn 0.000000 0.000000 -1.000000
vn 0.000000 0.000000 -1.000000
vn 0.000000 0.000000 -1.000000
vn 0.000000 0.000000 -1.000000
vn 0.000000 0.000000 -1.000000
vn 0.000000 0.000000 -1.000000
vn 0.000000 0.000000 -1.000000
vn 0.000000 0.000000 -1.000000
vn 0.000000 0.000000 -1.000000
vn 0.000000 0.000000 -1.000000
vn 0.000000 0.000000 -1.000000
vn 0.000000 0.000000 -1.000000
vn 0.000000 0.000000 -1.000000
vn 0.000000 0.000000 -1.000000
vn 0.000000 0.000000 -1.000000
vn 0.000000 0.000000 -1.000000
vn 0.000000 0.000000 -1.000000
vn 0.000000 0.000000 -1.000000
vn 0.000000 0.000000 -1.000000
vn 0.000000 0.000000 -1.000000
vn 0.000000 0.000000 -1.000000
f 27/27/25 31/31/26 25/25/27
f 32/32/28 29/29/29 28/28/30
f 35/35/31 29/29/29 32/32/28
f 35/35/31 32/32/28 33/33/32
f 32/32/28 31/31/26 33/33/32
f 33/33/32 31/31/26 27/27/25
f 33/33/32 27/27/25 34/34/33
f 33/33/32 34/34/33 26/26/34
f 34/34/33 44/44/35 26/26/34
f 30/30/36 44/44/35 34/34/33
f 38/38/37 35/35/31 37/37/38
f 35/35/31 33/33/32 37/37/38
f 44/44/35 38/38/37 37/37/38
f 30/30/36 41/41/39 44/44/35
f 40/40/40 44/44/35 39/39/41
f 41/41/39 42/42/42 44/44/35
f 42/42/42 39/39/41 44/44/35
f 44/44/35 40/40/40 45/45/43
f 43/43/44 38/38/37 44/44/35
f 43/43/44 44/44/35 45/45/43
f 47/47/45 49/49/46 46/46/47
f 49/49/46 47/47/45 40/40/40
f 46/46/47 49/49/46 48/48/48
f 49/49/46 40/40/40 39/39/41
f 49/49/46 39/39/41 50/50/49
f 50/50/49 39/39/41 36/36/50
f 48/48/48 49/49/46 50/50/49
v 11.400000 6.900000 0.000000
v 11.400000 -0.000000 0.000000
v 8.700000 -0.000000 0.000000
v 9.700000 1.000000 0.000000
v 11.400000 1.000000 0.000000
v 9.700000 2.685939 0.000000
v 9.700000 5.900000 0.000000
v 11.400000 3.543751 0.000000
v 9.700000 3.807813 0.000000
v 11.400000 4.671876 0.000000
v 8.700000 6.900000 0.000000
v 11.400000 5.900000 0.000000
vt 1.000000 1.000000
vt 1.000000 0.000000
vt 0.000000 0.000000
vt 0.370370 0.144928
vt 1.000000 0.144928
vt 0.370370 0.389266
vt 0.370370 0.855072
vt 1.000000 0.513587
vt 0.370370 0.551857
vt 1.000000 0.677083
vt 0.000000 1.000000
vt 1.000000 0.855072
vn 0.000000 0.000000 -1.000000
vn 0.000000 0.000000 -1.000000
vn 0.000000 0.000000 -1.000000
vn 0.000000 0.000000 -1.000000
vn 0.000000 0.000000 -1.000000
vn 0.000000 0.000000 -1.000000
vn 0.000000 0.000000 -1.000000
vn 0.000000 0.000000 -1.000000
vn 0.000000 0.000000 -1.000000
vn 0.000000 0.000000 -1.000000
vn 0.000000 0.000000 -1.000000
vn 0.000000 0.000000 -1.000000
f 52/52/51 54/54/52 55/55/53
f 52/52/51 53/53/54 54/54/52
f 54/54/52 53/53/54 56/56/55
f 53/53/54 59/59/56 56/56/55
f 53/53/54 57/57/57 59/59/56
f 59/59/56 58/58/58 56/56/55
f 59/59/56 60/60/59 58/58/58
f 53/53/54 61/61/60 57/57/57
f 51/51/61 57/57/57 61/61/60
f 62/62/62 57/57/57 51/51/61
v 13.200000 1.000000 0.000000
v 12.200000 0.000000 0.000000
v 14.300000 1.000000 0.000000
v 14.414413 0.001984 0.000000
v 14.857247 0.059376 0.000000
v 14.709699 0.027541 0.000000
v 15.004855 0.116225 0.000000
v 15.004924 0.293617 0.000000
v 15.056308 0.147009 0.000000
v 15.152442 0.242802 0.000000
v 15.239899 0.440515 0.000000
v 15.271903 0.587220 0.000000
v 15.300635 1.027656 0.000000
v 15.289813 0.734036 0.000000
v 13.200000 5.900000 0.000000
v 12.200000 6.900000 0.000000
v 15.287029 6.165960 0.000000
v 15.300371 5.872342 0.000000
v 14.414412 6.897524 0.000000
v 15.225059 6.459514 0.000000
v 15.264671 6.312773 0.000000
v 14.857251 6.825811 0.000000
v 14.562046 6.887424 0.000000
v 14.709700 6.865385 0.000000
v 14.300000 5.900000 0.000000
v 15.009840 6.752969 0.000000
v 15.152513 6.610990 0.000000
vt 0.322562 0.144928
vt 0.000000 0.000000
vt 0.677380 0.144928
vt 0.714286 0.000286
vt 0.857143 0.008580
vt 0.809524 0.004019
vt 0.904762 0.016825
vt 0.904762 0.042553
vt 0.921381 0.021277
vt 0.952381 0.035178
vt 0.980658 0.063830
vt 0.990851 0.085106
vt 0.999959 0.148936
vt 0.996633 0.106383
vt 0.322562 0.855072
vt 0.000000 1.000000
vt 0.995749 0.893617
vt 0.999959 0.851064
vt 0.714286 0.999645
vt 0.975824 0.936170
vt 0.988535 0.914894
vt 0.857143 0.989267
vt 0.761905 0.998170
vt 0.809524 0.994961
vt 0.677380 0.855072
vt 0.906394 0.978723
vt 0.952381 0.958118
vn 0.000000 0.000000 -1.000000
vn 0.000000 0.000000 -1.000000
vn 0.000000 0.000000 -1.000000
vn 0.000000 0.000000 -1.000000
vn 0.000000 0.000000 -1.000000
vn 0.000000 0.000000 -1.000000
vn 0.000000 0.000000 -1.000000
vn 0.000000 0.000000 -1.000000
vn 0.000000 0.000000 -1.000000
vn 0.000000 0.000000 -1.000000
vn 0.000000 0.000000 -1.000000
vn 0.000000 0.000000 -1.000000
vn 0.000000 0.000000 -1.000000
vn 0.000000 0.000000 -1.000000
vn 0.000000 0.000000 -1.000000
vn 0.000000 0.000000 -1.000000
vn 0.000000 0.000000 -1.000000
vn 0.000000 0.000000 -1.000000
vn 0.000000 0.000000 -1.000000
vn 0.000000 0.000000 -1.000000
vn 0.000000 0.000000 -1.000000
vn 0.000000 0.000000 -1.000000
vn 0.000000 0.000000 -1.000000
vn 0.000000 0.000000 -1.000000
vn 0.000000 0.000000 -1.000000
vn 0.000000 0.000000 -1.000000
vn 0.000000 0.000000 -1.000000
f 65/65/63 64/64/64 63/63/65
f 64/64/64 77/77/66 63/63/65
f 76/76/67 74/74/68 65/65/63
f 64/64/64 65/65/63 66/66/69
f 67/67/70 68/68/71 65/65/63
f 66/66/69 65/65/63 68/68/71
f 67/67/70 65/65/63 70/70/72
f 67/67/70 70/70/72 69/69/73
f 69/69/73 70/70/72 71/71/74
f 73/73/75 72/72/76 70/70/72
f 72/72/76 71/71/74 70/70/72
f 73/73/75 70/70/72 65/65/63
f 74/74/68 73/73/75 65/65/63
f 75/75/77 76/76/67 65/65/63
f 77/77/66 64/64/64 78/78/78
f 75/75/77 65/65/63 87/87/79
f 75/75/77 87/87/79 80/80/80
f 78/78/78 87/87/79 77/77/66
f 80/80/80 87/87/79 79/79/81
f 81/81/82 87/87/79 78/78/78
f 83/83/83 87/87/79 82/82/84
f 79/79/81 87/87/79 83/83/83
f 84/84/85 87/87/79 86/86/86
f 81/81/82 85/85/87 87/87/79
f 85/85/87 86/86/86 87/87/79
f 82/82/84 87/87/79 89/89/88
f 88/88/89 87/87/79 84/84/85
f 89/89/88 87/87/79 88/88/89
v 16.200001 -0.000000 0.000000
v 17.200001 -0.000000 0.000000
v 16.200001 6.900000 0.000000
v 17.200001 6.900000 0.000000
vt 0.000000 0.000000
vt 1.000000 0.000000
vt 0.000000 1.000000
vt 1.000000 1.000000
vn 0.000000 0.000000 -1.000000
vn 0.000000 0.000000 -1.000000
vn 0.000000 0.000000 -1.000000
vn 0.000000 0.000000 -1.000000
f 93/93/90 91/91/91 90/90/92
f 93/93/90 90/90/92 92/92/93
v 20.299999 0.000000 0.000000
v 19.299999 0.000000 0.000000
v 20.299999 5.900000 0.000000
v 19.299999 5.900000 0.000000
v 18.100000 5.900000 0.000000
v 18.100000 6.900000 0.000000
v 21.500000 6.900000 0.000000
v 21.500000 5.900000 0.000000
vt 0.647059 0.000000
vt 0.352941 0.000000
vt 0.647059 0.855072
vt 0.352941 0.855072
vt 0.000000 0.855072
vt 0.000000 1.000000
vt 1.000000 1.000000
vt 1.000000 0.855072
vn 0.000000 0.000000 -1.000000
vn 0.000000 0.000000 -1.000000
vn 0.000000 0.000000 -1.000000
vn 0.000000 0.000000 -1.000000
vn 0.000000 0.000000 -1.000000
vn 0.000000 0.000000 -1.000000
vn 0.000000 0.000000 -1.000000
vn 0.000000 0.000000 -1.000000
f 97/97/94 96/96/95 95/95/96
f 94/94/97 95/95/96 96/96/95
f 100/100/98 97/97/94 99/99/99
f 97/97/94 98/98/100 99/99/99
f 96/96/95 97/97/94 100/100/98
f 100/100/98 101/101/101 96/96/95
v 24.500000 4.957813 0.000000
v 25.497444 6.019959 0.000000
v 23.426563 2.121875 0.000000
v 22.677887 0.146586 0.000000
v 22.402754 0.880617 0.000000
v 23.400000 1.000000 0.000000
v 22.473358 0.440110 0.000000
v 23.137892 0.012822 0.000000
v 22.400000 1.596877 0.000000
v 25.488939 0.733849 0.000000
v 23.400000 -0.000000 0.000000
v 24.614773 0.001873 0.000000
v 25.255749 0.146475 0.000000
v 24.500000 1.000000 0.000000
v 25.440180 0.440060 0.000000
v 22.400000 2.184376 0.000000
v 24.500000 3.242188 0.000000
v 23.400000 5.900000 0.000000
v 23.426563 3.821875 0.000000
v 25.500000 4.867188 0.000000
v 22.402212 6.019958 0.000000
v 22.842506 6.837128 0.000000
v 22.547283 6.644976 0.000000
v 23.433260 6.900206 0.000000
v 25.500000 5.471876 0.000000
v 25.208792 6.754312 0.000000
v 24.614754 6.897153 0.000000
v 25.425085 6.460491 0.000000
v 24.500000 5.900000 0.000000
vt 0.677280 0.718438
vt 0.998878 0.872340
vt 0.331173 0.307516
vt 0.089748 0.021277
vt 0.001064 0.127660
vt 0.322609 0.144958
vt 0.023824 0.063830
vt 0.238095 0.001906
vt 0.000181 0.231444
vt 0.996410 0.106383
vt 0.322609 0.000060
vt 0.714286 0.000331
vt 0.920966 0.021277
vt 0.677280 0.144958
vt 0.980372 0.063830
vt 0.000181 0.316572
vt 0.677280 0.469847
vt 0.322609 0.854959
vt 0.331173 0.553842
vt 0.999708 0.705306
vt 0.000887 0.872340
vt 0.142857 0.990746
vt 0.047619 0.962920
vt 0.333333 0.999852
vt 0.999708 0.792924
vt 0.905780 0.978723
vt 0.714286 0.999524
vt 0.975538 0.936170
vt 0.677280 0.854959
vn 0.000000 0.000000 -1.000000
vn 0.000000 0.000000 -1.000000
vn 0.000000 0.000000 -1.000000
vn 0.000000 0.000000 -1.000000
vn 0.000000 0.000000 -1.000000
vn 0.000000 0.000000 -1.000000
vn 0.000000 0.000000 -1.000000
vn 0.000000 0.000000 -1.000000
vn 0.000000 0.000000 -1.000000
vn 0.000000 0.000000 -1.000000
vn 0.000000 0.000000 -1.000000
vn 0.000000 0.000000 -1.000000
vn 0.000000 0.000000 -1.000000
vn 0.000000 0.000000 -1.000000
vn 0.000000 0.000000 -1.000000
vn 0.000000 0.000000 -1.000000
vn 0.000000 0.000000 -1.000000
vn 0.000000 0.000000 -1.000000
vn 0.000000 0.000000 -1.000000
vn 0.000000 0.000000 -1.000000
vn 0.000000 0.000000 -1.000000
vn 0.000000 0.000000 -1.000000
vn 0.000000 0.000000 -1.000000
vn 0.000000 0.000000 -1.000000
vn 0.000000 0.000000 -1.000000
vn 0.000000 0.000000 -1.000000
vn 0.000000 0.000000 -1.000000
vn 0.000000 0.000000 -1.000000
vn 0.000000 0.000000 -1.000000
f 108/108/102 107/107/103 105/105/104
f 109/109/105 105/105/104 107/107/103
f 107/107/103 112/112/106 109/109/105
f 115/115/107 112/112/106 107/107/103
f 106/106/108 107/107/103 108/108/102
f 110/110/109 107/107/103 106/106/108
f 112/112/106 115/115/107 113/113/110
f 113/113/110 115/115/107 114/114/111
f 114/114/111 115/115/107 116/116/112
f 116/116/112 115/115/107 111/111/113
f 111/111/113 115/115/107 121/121/114
f 104/104/115 107/107/103 110/110/109
f 118/118/116 121/121/114 115/115/107
f 117/117/117 120/120/118 118/118/116
f 120/120/118 117/117/117 119/119/119
f 120/120/118 121/121/114 118/118/116
f 126/126/120 102/102/121 130/130/122
f 122/122/123 119/119/119 117/117/117
f 122/122/123 124/124/124 119/119/119
f 124/124/124 123/123/125 119/119/119
f 123/123/125 125/125/126 119/119/119
f 126/126/120 130/130/122 103/103/127
f 119/119/119 125/125/126 130/130/122
f 125/125/126 128/128/128 130/130/122
f 130/130/122 128/128/128 127/127/129
f 103/103/127 130/130/122 129/129/130
f 129/129/130 130/130/122 127/127/129
