#
#
#

mtllib Fighter_obj.mtl


#
#  Mesh
#
g  Mesh

v 0.629231 -0.043397 0.721906
v 0.403102 -0.043397 0.283960
v 0.064614 -0.043397 0.283960
v 0.064615 -0.043397 0.566268
v 0.629231 -0.043397 0.001651
v 0.064614 0.044242 0.001651
v 0.403102 -0.043397 -0.283960
v 0.064614 -0.043397 -0.283960
v 0.629230 -0.043397 -0.721906
v 0.064614 -0.043397 -0.566268
v -0.629232 -0.043397 0.001651
v -0.235642 0.110849 0.001651
v 0.629231 -0.110849 0.721906
v 0.064615 -0.110849 0.566268
v 0.064614 -0.110849 0.283960
v 0.403102 -0.110849 0.283960
v 0.064614 -0.110849 0.001651
v 0.629231 -0.110849 0.001651
v 0.064614 -0.110849 -0.280658
v 0.403102 -0.110849 -0.280658
v 0.064615 -0.110849 -0.562966
v 0.629230 -0.110849 -0.718604
v -0.629232 -0.110849 0.001651
v -0.420073 -0.071283 0.368628
v -0.420073 -0.062593 0.377319
v -0.122398 -0.062593 0.377319
v -0.122398 -0.071283 0.368628
v -0.420073 -0.059411 0.389191
v -0.122398 -0.059411 0.389191
v -0.420073 -0.062593 0.401063
v -0.122398 -0.062593 0.401063
v -0.420073 -0.071283 0.409753
v -0.122398 -0.071283 0.409753
v -0.420073 -0.083156 0.412934
v -0.122398 -0.083156 0.412934
v -0.420073 -0.095027 0.409753
v -0.122398 -0.095027 0.409753
v -0.420073 -0.103718 0.401063
v -0.122398 -0.103718 0.401063
v -0.420073 -0.106900 0.389191
v -0.122398 -0.106900 0.389191
v -0.420073 -0.103718 0.377319
v -0.122398 -0.103718 0.377319
v -0.420073 -0.095027 0.368628
v -0.122398 -0.095027 0.368628
v -0.420073 -0.083156 0.365447
v -0.122398 -0.083156 0.365447
v -0.420073 -0.083156 0.389191
v -0.122398 -0.083156 0.389191
v -0.420073 -0.071283 0.300529
v -0.420073 -0.062593 0.309220
v -0.122398 -0.062593 0.309220
v -0.122398 -0.071283 0.300529
v -0.420073 -0.059411 0.321092
v -0.122398 -0.059411 0.321092
v -0.420073 -0.062593 0.332964
v -0.122398 -0.062593 0.332964
v -0.420073 -0.071283 0.341654
v -0.122398 -0.071283 0.341654
v -0.420073 -0.083156 0.344835
v -0.122398 -0.083156 0.344835
v -0.420073 -0.095027 0.341654
v -0.122398 -0.095027 0.341654
v -0.420073 -0.103718 0.332964
v -0.122398 -0.103718 0.332964
v -0.420073 -0.106900 0.321092
v -0.122398 -0.106900 0.321092
v -0.420073 -0.103718 0.309220
v -0.122398 -0.103718 0.309220
v -0.420073 -0.095027 0.300529
v -0.122398 -0.095027 0.300529
v -0.420073 -0.083156 0.297348
v -0.122398 -0.083156 0.297348
v -0.420073 -0.083156 0.321092
v -0.122398 -0.083156 0.321092
v -0.420073 -0.071283 -0.397979
v -0.420073 -0.062593 -0.389288
v -0.122398 -0.062593 -0.389288
v -0.122398 -0.071283 -0.397979
v -0.420073 -0.059411 -0.377416
v -0.122398 -0.059411 -0.377416
v -0.420073 -0.062593 -0.365544
v -0.122398 -0.062593 -0.365544
v -0.420073 -0.071283 -0.356854
v -0.122398 -0.071283 -0.356854
v -0.420073 -0.083156 -0.353673
v -0.122398 -0.083156 -0.353673
v -0.420073 -0.095027 -0.356854
v -0.122398 -0.095027 -0.356854
v -0.420073 -0.103718 -0.365544
v -0.122398 -0.103718 -0.365544
v -0.420073 -0.106900 -0.377416
v -0.122398 -0.106900 -0.377416
v -0.420073 -0.103718 -0.389288
v -0.122398 -0.103718 -0.389288
v -0.420073 -0.095027 -0.397979
v -0.122398 -0.095027 -0.397979
v -0.420073 -0.083156 -0.401160
v -0.122398 -0.083156 -0.401160
v -0.420073 -0.083156 -0.377416
v -0.122398 -0.083156 -0.377416
v -0.420073 -0.071283 -0.329880
v -0.420073 -0.062593 -0.321189
v -0.122398 -0.062593 -0.321189
v -0.122398 -0.071283 -0.329880
v -0.420073 -0.059411 -0.309317
v -0.122398 -0.059411 -0.309317
v -0.420073 -0.062593 -0.297445
v -0.122398 -0.062593 -0.297445
v -0.420073 -0.071283 -0.288755
v -0.122398 -0.071283 -0.288755
v -0.420073 -0.083156 -0.285574
v -0.122398 -0.083156 -0.285574
v -0.420073 -0.095027 -0.288755
v -0.122398 -0.095027 -0.288755
v -0.420073 -0.103718 -0.297445
v -0.122398 -0.103718 -0.297445
v -0.420073 -0.106900 -0.309317
v -0.122398 -0.106900 -0.309317
v -0.420073 -0.103718 -0.321189
v -0.122398 -0.103718 -0.321189
v -0.420073 -0.095027 -0.329880
v -0.122398 -0.095027 -0.329880
v -0.420073 -0.083156 -0.333061
v -0.122398 -0.083156 -0.333061
v -0.420073 -0.083156 -0.309317
v -0.122398 -0.083156 -0.309317
vn 0.196964 0.551626 0.810502
vn 0.566890 0.823372 0.026361
vn -0.363606 0.713842 0.598515
vn -0.013551 0.964441 0.263952
vn 0.871334 0.490688 0.001552
vn 0.124278 0.992247 0.001313
vn 0.565780 0.824195 -0.024404
vn 0.124278 0.992247 0.001313
vn -0.013796 0.965078 -0.261600
vn 0.493425 0.772617 -0.399492
vn -0.370118 0.591313 -0.716493
vn -0.470854 0.882210 0.001592
vn -0.039845 0.999203 0.002265
vn -0.013796 0.965078 -0.261600
vn 0.833698 -0.551626 0.025630
vn -0.276652 -0.713842 0.643345
vn 0.514957 -0.840910 0.166405
vn 0.000000 -1.000000 -0.000000
vn 0.000000 -1.000000 0.000000
vn 0.461580 -0.887098 -0.000000
vn 0.000000 -1.000000 -0.000000
vn 0.619313 -0.759579 -0.198725
vn -0.245348 -0.844622 -0.475835
vn 0.650244 -0.547745 -0.526458
vn -0.530413 -0.847739 0.000497
vn -0.276652 -0.713842 0.643345
vn 0.833698 -0.551626 0.025630
vn 0.566890 0.823372 0.026361
vn 0.871334 0.490688 0.001552
vn 0.565780 0.824195 -0.024404
vn -0.245348 -0.844622 -0.475835
vn -0.370118 0.591313 -0.716493
vn 0.650244 -0.547745 -0.526458
vn -0.363606 0.713842 0.598515
vn -0.245348 -0.844622 -0.475835
vn -0.039845 0.999203 0.002265
vn -0.470854 0.882210 0.001592
vn 0.124278 0.992246 0.001313
vn -0.013796 0.965078 -0.261600
vn -0.039845 0.999203 0.002265
vn -0.566503 0.473905 -0.674158
vn -0.566494 0.747478 -0.346932
vn 0.566494 0.674185 -0.473877
vn 0.566503 0.346906 -0.747482
vn -0.566506 0.820788 0.073331
vn 0.566506 0.820788 -0.073331
vn -0.566494 0.747478 -0.346932
vn -0.566496 0.674165 0.473903
vn 0.566496 0.747470 0.346946
vn -0.566501 0.346894 0.747490
vn 0.566501 0.473879 0.674178
vn 0.566496 0.747470 0.346946
vn -0.566499 -0.073326 0.820794
vn 0.566499 0.073291 0.820797
vn 0.566501 0.473879 0.674178
vn -0.566496 -0.473864 0.674192
vn 0.566496 -0.346903 0.747489
vn -0.566499 -0.747461 0.346959
vn 0.566499 -0.674145 0.473928
vn -0.566506 -0.820788 -0.073331
vn 0.566506 -0.820788 0.073331
vn -0.566496 -0.674165 -0.473902
vn 0.566496 -0.747470 -0.346946
vn 0.566506 -0.820788 0.073331
vn -0.566499 -0.346915 -0.747482
vn 0.566499 -0.473889 -0.674172
vn -0.566499 0.073291 -0.820797
vn 0.566499 -0.073325 -0.820794
vn 0.566499 -0.073325 -0.820794
vn -1.000000 0.000000 0.000000
vn 1.000000 -0.000000 0.000000
vn -0.566503 0.473904 -0.674158
vn -0.566494 0.747478 -0.346932
vn 0.566494 0.674185 -0.473878
vn 0.566503 0.346907 -0.747482
vn -0.566506 0.820788 0.073331
vn 0.566506 0.820788 -0.073330
vn -0.566506 -0.820788 -0.073330
vn 0.566506 -0.820788 0.073331
vn -0.566496 -0.674165 -0.473903
vn 0.566496 -0.747469 -0.346946
vn 0.566506 -0.820788 0.073331
vn -0.566499 -0.346916 -0.747481
vn 0.566499 -0.473889 -0.674172
vn -0.566499 0.073291 -0.820797
vn 0.566499 -0.073326 -0.820794
vn -0.566503 0.473904 -0.674158
vn 1.000000 -0.000000 0.000000
vn 0.566496 -0.747469 -0.346946
vn 0.566499 -0.473889 -0.674172
vn -0.566504 0.473904 -0.674158
vn -0.566493 0.747478 -0.346932
vn 0.566494 0.674184 -0.473878
vn 0.566503 0.346907 -0.747482
vn -0.566506 0.820788 0.073330
vn 0.566506 0.820788 -0.073331
vn 0.566494 0.674184 -0.473878
vn -0.566497 0.674164 0.473903
vn 0.566496 0.747470 0.346945
vn -0.566501 0.346893 0.747490
vn 0.566501 0.473879 0.674178
vn -0.566497 0.674164 0.473903
vn -0.566499 -0.073325 0.820794
vn 0.566499 0.073291 0.820797
vn -0.566496 -0.473864 0.674192
vn 0.566496 -0.346901 0.747490
vn 0.566499 0.073291 0.820797
vn -0.566499 -0.747461 0.346959
vn 0.566499 -0.674145 0.473928
vn -0.566506 -0.820788 -0.073331
vn 0.566506 -0.820788 0.073330
vn -0.566496 -0.674165 -0.473903
vn 0.566496 -0.747469 -0.346946
vn 0.566506 -0.820788 0.073330
vn -0.566499 -0.346914 -0.747482
vn 0.566499 -0.473889 -0.674172
vn 0.566499 -0.073326 -0.820794
vn -0.566503 0.473904 -0.674158
vn -0.566493 0.747478 -0.346932
vn -1.000000 -0.000000 0.000000
vn -0.566501 0.346893 0.747491
vn -1.000000 -0.000000 0.000000
vn -1.000000 -0.000000 0.000000
vn -0.566499 -0.346914 -0.747482
vn 1.000000 -0.000000 0.000000
vn 0.566501 0.473879 0.674178
vn 0.566499 -0.073326 -0.820794
vn 1.000000 -0.000000 0.000000
vn -0.566503 0.473905 -0.674157
vn 0.566503 0.346908 -0.747482
vn -0.566499 -0.346916 -0.747481
vn 0.566499 -0.473890 -0.674172
vn 1.000000 -0.000000 0.000000
vt 0.037830 0.565061
vt 0.193784 0.624696
vt 0.104337 0.743645
vt 0.196007 0.739221
vt 0.294915 0.561155
vt 0.297208 0.735638
vt 0.398656 0.621797
vt 0.399077 0.736525
vt 0.554433 0.563024
vt 0.489344 0.739065
vt 0.304380 0.968022
vt 0.300084 0.830243
vt 0.871773 0.048628
vt 0.813968 0.252159
vt 0.710447 0.048628
vt 0.713916 0.256078
vt 0.612588 0.260684
vt 0.602974 0.048628
vt 0.510598 0.265921
vt 0.501590 0.048628
vt 0.408544 0.271612
vt 0.340194 0.048628
vt 0.626635 0.510455
vt 0.805165 0.799953
vt 0.804689 0.664354
vt 0.823205 0.665742
vt 0.823526 0.799909
vt 0.947530 0.347887
vt 0.948069 0.041801
vt 0.983272 0.041859
vt 0.982759 0.347120
vt 0.822470 0.565667
vt 0.840842 0.568618
vt 0.836590 0.467641
vt 0.855204 0.467739
vt 0.833230 0.332118
vt 0.851857 0.330834
vt 0.927246 0.081074
vt 0.922406 0.367580
vt 0.889443 0.366432
vt 0.894247 0.080050
vt 0.940430 0.815391
vt 0.975728 0.815923
vt 0.919094 0.804775
vt 0.886127 0.804550
vt 0.248786 0.521354
vt 0.242259 0.521354
vt 0.242260 0.297793
vt 0.248787 0.297793
vt 0.233343 0.521354
vt 0.233344 0.297793
vt 0.224427 0.521354
vt 0.224428 0.297793
vt 0.217900 0.521354
vt 0.217901 0.297793
vt 0.208984 0.521354
vt 0.208984 0.297793
vt 0.200069 0.521354
vt 0.200069 0.297793
vt 0.193542 0.521354
vt 0.193542 0.297793
vt 0.184626 0.521354
vt 0.184626 0.297793
vt 0.175710 0.521354
vt 0.175710 0.297793
vt 0.169183 0.521354
vt 0.169183 0.297793
vt 0.160268 0.521354
vt 0.160268 0.297793
vt 0.151351 0.521354
vt 0.151351 0.297793
vt 0.898556 0.905321
vt 0.890287 0.897053
vt 0.909851 0.885756
vt 0.909851 0.908349
vt 0.921147 0.905321
vt 0.929416 0.897053
vt 0.932442 0.885756
vt 0.929416 0.874462
vt 0.921147 0.866192
vt 0.909851 0.863165
vt 0.898556 0.866192
vt 0.890287 0.874462
vt 0.887260 0.885756
vt 0.868730 0.897053
vt 0.860461 0.905321
vt 0.849165 0.885756
vt 0.849165 0.908349
vt 0.837870 0.905321
vt 0.829601 0.897053
vt 0.826574 0.885756
vt 0.829601 0.874462
vt 0.837870 0.866192
vt 0.849165 0.863165
vt 0.860461 0.866192
vt 0.868730 0.874462
vt 0.871756 0.885756
vt 0.116024 0.521513
vt 0.109581 0.521513
vt 0.109581 0.300817
vt 0.116024 0.300817
vt 0.100779 0.521513
vt 0.100779 0.300817
vt 0.091977 0.521513
vt 0.091977 0.300817
vt 0.085534 0.521513
vt 0.085534 0.300817
vt 0.076732 0.521513
vt 0.076731 0.300817
vt 0.067930 0.521513
vt 0.067930 0.300817
vt 0.061487 0.521513
vt 0.061487 0.300817
vt 0.052685 0.521513
vt 0.052685 0.300817
vt 0.043884 0.521513
vt 0.043884 0.300817
vt 0.037440 0.521513
vt 0.037440 0.300817
vt 0.028639 0.521513
vt 0.028639 0.300817
vt 0.019837 0.521513
vt 0.019837 0.300817
vt 0.777184 0.905321
vt 0.768915 0.897053
vt 0.788480 0.885756
vt 0.788480 0.908349
vt 0.799775 0.905321
vt 0.808044 0.897053
vt 0.811070 0.885756
vt 0.808044 0.874462
vt 0.799775 0.866192
vt 0.788480 0.863165
vt 0.777184 0.866192
vt 0.768915 0.874462
vt 0.765888 0.885756
vt 0.747358 0.897053
vt 0.739089 0.905321
vt 0.727793 0.885756
vt 0.727793 0.908349
vt 0.716498 0.905321
vt 0.708229 0.897053
vt 0.705202 0.885756
vt 0.708229 0.874462
vt 0.716498 0.866192
vt 0.727793 0.863165
vt 0.739089 0.866192
vt 0.747358 0.874462
vt 0.750384 0.885756
vt 0.252363 0.277011
vt 0.245139 0.277011
vt 0.245139 0.029571
vt 0.252363 0.029571
vt 0.235271 0.277011
vt 0.235271 0.029571
vt 0.225403 0.277011
vt 0.225403 0.029571
vt 0.218178 0.277011
vt 0.218178 0.029571
vt 0.208309 0.277011
vt 0.208309 0.029571
vt 0.198442 0.277011
vt 0.198442 0.029571
vt 0.191218 0.277011
vt 0.191218 0.029571
vt 0.181349 0.277011
vt 0.181349 0.029571
vt 0.171481 0.277011
vt 0.171481 0.029571
vt 0.164257 0.277011
vt 0.164257 0.029571
vt 0.154389 0.277011
vt 0.154390 0.029571
vt 0.144520 0.277011
vt 0.144521 0.029571
vt 0.655812 0.905321
vt 0.647543 0.897053
vt 0.667107 0.885756
vt 0.667107 0.908349
vt 0.678403 0.905321
vt 0.686672 0.897053
vt 0.689699 0.885756
vt 0.686672 0.874462
vt 0.678403 0.866192
vt 0.667107 0.863165
vt 0.655812 0.866192
vt 0.647543 0.874462
vt 0.644517 0.885756
vt 0.625986 0.900195
vt 0.617717 0.908463
vt 0.606421 0.888898
vt 0.606421 0.911490
vt 0.595126 0.908463
vt 0.586857 0.900195
vt 0.583831 0.888898
vt 0.586857 0.877603
vt 0.595126 0.869334
vt 0.606421 0.866307
vt 0.617717 0.869334
vt 0.625986 0.877603
vt 0.629013 0.888898
vt 0.129386 0.278030
vt 0.121841 0.278030
vt 0.121841 0.019606
vt 0.129386 0.019606
vt 0.111535 0.278030
vt 0.111535 0.019606
vt 0.101228 0.278030
vt 0.101228 0.019606
vt 0.093684 0.278030
vt 0.093684 0.019607
vt 0.083377 0.278030
vt 0.083377 0.019606
vt 0.073071 0.278030
vt 0.073071 0.019607
vt 0.065526 0.278030
vt 0.065526 0.019606
vt 0.055220 0.278030
vt 0.055220 0.019606
vt 0.044913 0.278030
vt 0.044913 0.019606
vt 0.037369 0.278030
vt 0.037369 0.019606
vt 0.027063 0.278030
vt 0.027063 0.019606
vt 0.016756 0.278030
vt 0.016756 0.019606
vt 0.534440 0.908463
vt 0.526171 0.900195
vt 0.545736 0.888898
vt 0.545736 0.911490
vt 0.557031 0.908463
vt 0.565300 0.900195
vt 0.568326 0.888898
vt 0.565300 0.877603
vt 0.557031 0.869334
vt 0.545736 0.866307
vt 0.534440 0.869334
vt 0.526171 0.877603
vt 0.523144 0.888898
vt 0.504614 0.900195
vt 0.496345 0.908463
vt 0.485050 0.888898
vt 0.485050 0.911490
vt 0.473754 0.908463
vt 0.465485 0.900195
vt 0.462458 0.888898
vt 0.465485 0.877603
vt 0.473754 0.869334
vt 0.485050 0.866307
vt 0.496345 0.869334
vt 0.504614 0.877603
vt 0.507641 0.888898
f 1/1/1 2/2/2 4/3/3
f 2/2/2 3/4/4 4/3/3
f 2/2/2 5/5/5 6/6/6
f 2/2/2 6/6/6 3/4/4
f 5/5/5 7/7/7 6/6/8
f 7/7/7 8/8/9 6/6/6
f 7/7/7 9/9/10 10/10/11
f 7/7/7 10/10/11 8/8/9
f 4/3/3 3/4/4 11/11/12
f 3/4/4 6/6/8 12/12/13
f 12/12/13 8/8/9 11/11/12
f 8/8/14 10/10/11 11/11/12
f 13/13/15 14/14/16 16/15/17
f 14/14/16 15/16/18 16/15/17
f 16/15/17 15/16/18 17/17/19
f 16/15/17 17/17/19 18/18/20
f 18/18/20 17/17/19 19/19/21
f 18/18/20 19/19/21 20/20/22
f 20/20/22 19/19/21 21/21/23
f 20/20/22 21/21/23 22/22/24
f 14/14/16 23/23/25 15/16/18
f 15/16/18 23/23/25 17/17/19
f 17/17/19 23/23/25 19/19/21
f 19/19/21 23/23/25 21/21/23
f 13/24/15 16/25/17 2/26/2
f 13/24/15 2/26/2 1/27/1
f 14/28/26 13/29/27 1/30/1
f 14/28/26 1/30/1 4/31/3
f 16/25/17 18/32/20 5/33/5
f 16/25/17 5/33/5 2/26/28
f 18/32/20 20/34/22 5/33/29
f 20/34/22 7/35/7 5/33/29
f 20/34/22 22/36/24 7/35/7
f 22/36/24 9/37/10 7/35/30
f 22/38/24 21/39/31 10/40/32
f 22/38/33 10/40/11 9/41/10
f 23/42/25 14/28/26 4/31/3
f 23/42/25 4/31/34 11/43/12
f 21/39/35 23/44/25 10/40/11
f 23/44/25 11/45/12 10/40/11
f 3/4/4 12/12/36 11/11/37
f 6/6/38 8/8/39 12/12/40
f 24/46/41 25/47/42 26/48/43
f 24/46/41 26/48/43 27/49/44
f 25/47/42 28/50/45 29/51/46
f 25/47/47 29/51/46 26/48/43
f 28/50/45 30/52/48 31/53/49
f 28/50/45 31/53/49 29/51/46
f 30/52/48 32/54/50 33/55/51
f 30/52/48 33/55/51 31/53/52
f 32/54/50 34/56/53 35/57/54
f 32/54/50 35/57/54 33/55/55
f 34/56/53 36/58/56 37/59/57
f 34/56/53 37/59/57 35/57/54
f 36/58/56 38/60/58 39/61/59
f 36/58/56 39/61/59 37/59/57
f 38/60/58 40/62/60 41/63/61
f 38/60/58 41/63/61 39/61/59
f 40/62/60 42/64/62 43/65/63
f 40/62/60 43/65/63 41/63/64
f 42/64/62 44/66/65 45/67/66
f 42/64/62 45/67/66 43/65/63
f 44/66/65 46/68/67 47/69/68
f 44/66/65 47/69/68 45/67/66
f 46/68/67 24/70/41 27/71/44
f 46/68/67 27/71/44 47/69/69
f 25/72/42 24/73/41 48/74/70
f 28/75/45 25/72/42 48/74/70
f 30/76/48 28/75/45 48/74/70
f 32/77/50 30/76/48 48/74/70
f 34/78/53 32/77/50 48/74/70
f 36/79/56 34/78/53 48/74/70
f 38/80/58 36/79/56 48/74/70
f 40/81/60 38/80/58 48/74/70
f 42/82/62 40/81/60 48/74/70
f 44/83/65 42/82/62 48/74/70
f 46/84/67 44/83/65 48/74/70
f 24/73/41 46/84/67 48/74/70
f 27/85/44 26/86/43 49/87/71
f 26/86/43 29/88/46 49/87/71
f 29/88/46 31/89/49 49/87/71
f 31/89/49 33/90/51 49/87/71
f 33/90/51 35/91/54 49/87/71
f 35/91/54 37/92/57 49/87/71
f 37/92/57 39/93/59 49/87/71
f 39/93/59 41/94/61 49/87/71
f 41/94/61 43/95/63 49/87/71
f 43/95/63 45/96/66 49/87/71
f 45/96/66 47/97/68 49/87/71
f 47/97/68 27/85/44 49/87/71
f 50/98/72 51/99/73 52/100/74
f 50/98/72 52/100/74 53/101/75
f 51/99/73 54/102/76 55/103/77
f 51/99/73 55/103/77 52/100/74
f 54/102/76 56/104/48 57/105/49
f 54/102/76 57/105/49 55/103/77
f 56/104/48 58/106/50 59/107/51
f 56/104/48 59/107/51 57/105/52
f 58/106/50 60/108/53 61/109/54
f 58/106/50 61/109/54 59/107/55
f 60/108/53 62/110/56 63/111/57
f 60/108/53 63/111/57 61/109/54
f 62/110/56 64/112/58 65/113/59
f 62/110/56 65/113/59 63/111/57
f 64/112/58 66/114/78 67/115/79
f 64/112/58 67/115/79 65/113/59
f 66/114/78 68/116/80 69/117/81
f 66/114/78 69/117/81 67/115/82
f 68/116/80 70/118/83 71/119/84
f 68/116/80 71/119/84 69/117/81
f 70/118/83 72/120/85 73/121/86
f 70/118/83 73/121/86 71/119/84
f 72/120/85 50/122/87 53/123/75
f 72/120/85 53/123/75 73/121/86
f 51/124/73 50/125/72 74/126/70
f 54/127/76 51/124/73 74/126/70
f 56/128/48 54/127/76 74/126/70
f 58/129/50 56/128/48 74/126/70
f 60/130/53 58/129/50 74/126/70
f 62/131/56 60/130/53 74/126/70
f 64/132/58 62/131/56 74/126/70
f 66/133/78 64/132/58 74/126/70
f 68/134/80 66/133/78 74/126/70
f 70/135/83 68/134/80 74/126/70
f 72/136/85 70/135/83 74/126/70
f 50/125/72 72/136/85 74/126/70
f 53/137/75 52/138/74 75/139/88
f 52/138/74 55/140/77 75/139/88
f 55/140/77 57/141/49 75/139/88
f 57/141/49 59/142/51 75/139/88
f 59/142/51 61/143/54 75/139/88
f 61/143/54 63/144/57 75/139/88
f 63/144/57 65/145/59 75/139/88
f 65/145/59 67/146/79 75/139/88
f 67/146/79 69/147/81 75/139/88
f 69/147/89 71/148/90 75/139/88
f 71/148/84 73/149/86 75/139/88
f 73/149/86 53/137/75 75/139/88
f 76/150/91 77/151/92 78/152/93
f 76/150/91 78/152/93 79/153/94
f 77/151/92 80/154/95 81/155/96
f 77/151/92 81/155/96 78/152/97
f 80/154/95 82/156/98 83/157/99
f 80/154/95 83/157/99 81/155/96
f 82/156/98 84/158/100 85/159/101
f 82/156/102 85/159/101 83/157/99
f 84/158/100 86/160/103 87/161/104
f 84/158/100 87/161/104 85/159/101
f 86/160/103 88/162/105 89/163/106
f 86/160/103 89/163/106 87/161/107
f 88/162/105 90/164/108 91/165/109
f 88/162/105 91/165/109 89/163/106
f 90/164/108 92/166/110 93/167/111
f 90/164/108 93/167/111 91/165/109
f 92/166/110 94/168/112 95/169/113
f 92/166/110 95/169/113 93/167/114
f 94/168/112 96/170/115 97/171/116
f 94/168/112 97/171/116 95/169/113
f 96/170/115 98/172/85 99/173/117
f 96/170/115 99/173/117 97/171/116
f 98/172/85 76/174/118 79/175/94
f 98/172/85 79/175/94 99/173/117
f 77/176/119 76/177/91 100/178/120
f 80/179/95 77/176/92 100/178/120
f 82/180/98 80/179/95 100/178/120
f 84/181/121 82/180/98 100/178/120
f 86/182/103 84/181/100 100/178/122
f 88/183/105 86/182/103 100/178/123
f 90/184/108 88/183/105 100/178/120
f 92/185/110 90/184/108 100/178/120
f 94/186/112 92/185/110 100/178/120
f 96/187/115 94/186/112 100/178/120
f 98/188/85 96/187/124 100/178/122
f 76/177/91 98/188/85 100/178/123
f 79/189/94 78/190/93 101/191/125
f 78/190/93 81/192/96 101/191/125
f 81/192/96 83/193/99 101/191/125
f 83/193/99 85/194/126 101/191/125
f 85/194/101 87/195/104 101/191/125
f 87/195/104 89/196/106 101/191/125
f 89/196/106 91/197/109 101/191/125
f 91/197/109 93/198/111 101/191/125
f 93/198/111 95/199/113 101/191/125
f 95/199/113 97/200/116 101/191/125
f 97/200/116 99/201/117 101/191/125
f 99/201/127 79/189/94 101/191/128
f 102/202/129 103/203/42 104/204/43
f 102/202/129 104/204/43 105/205/130
f 103/203/42 106/206/45 107/207/46
f 103/203/47 107/207/46 104/204/43
f 106/206/45 108/208/48 109/209/49
f 106/206/45 109/209/49 107/207/46
f 108/208/48 110/210/50 111/211/51
f 108/208/48 111/211/51 109/209/52
f 110/210/50 112/212/53 113/213/54
f 110/210/50 113/213/54 111/211/55
f 112/212/53 114/214/56 115/215/57
f 112/212/53 115/215/57 113/213/54
f 114/214/56 116/216/58 117/217/59
f 114/214/56 117/217/59 115/215/57
f 116/216/58 118/218/60 119/219/61
f 116/216/58 119/219/61 117/217/59
f 118/218/60 120/220/62 121/221/63
f 118/218/60 121/221/63 119/219/64
f 120/220/62 122/222/131 123/223/132
f 120/220/62 123/223/132 121/221/63
f 122/222/131 124/224/85 125/225/86
f 122/222/131 125/225/86 123/223/132
f 124/224/85 102/226/129 105/227/130
f 124/224/85 105/227/130 125/225/86
f 103/228/42 102/229/129 126/230/70
f 106/231/45 103/228/42 126/230/70
f 108/232/48 106/231/45 126/230/70
f 110/233/50 108/232/48 126/230/70
f 112/234/53 110/233/50 126/230/70
f 114/235/56 112/234/53 126/230/70
f 116/236/58 114/235/56 126/230/70
f 118/237/60 116/236/58 126/230/70
f 120/238/62 118/237/60 126/230/70
f 122/239/131 120/238/62 126/230/70
f 124/240/85 122/239/131 126/230/70
f 102/229/129 124/240/85 126/230/70
f 105/241/130 104/242/43 127/243/133
f 104/242/43 107/244/46 127/243/133
f 107/244/46 109/245/49 127/243/133
f 109/245/49 111/246/51 127/243/133
f 111/246/51 113/247/54 127/243/133
f 113/247/54 115/248/57 127/243/133
f 115/248/57 117/249/59 127/243/133
f 117/249/59 119/250/61 127/243/133
f 119/250/61 121/251/63 127/243/133
f 121/251/63 123/252/132 127/243/133
f 123/252/132 125/253/86 127/243/133
f 125/253/86 105/241/130 127/243/133
