# This file uses centimeters as units for non-parametric coordinates.

v 1.528125 6.670313 0.000000
v 1.400000 6.487501 0.000000
v 1.400000 6.900000 0.000000
v 0.400000 6.900000 0.000000
v 0.400000 0.000000 0.000000
v 1.400000 0.000000 0.000000
v 2.500000 0.000000 0.000000
v 3.500000 0.000000 0.000000
v 1.876190 6.866162 0.000000
v 1.400000 5.900000 0.000000
v 1.580952 6.459575 0.000000
v 1.728553 6.809538 0.000000
v 3.493434 6.019126 0.000000
v 1.876190 5.900000 0.000000
v 3.469238 6.165982 0.000000
v 3.499989 5.872340 0.000000
v 2.614269 6.894361 0.000000
v 2.171428 6.900118 0.000000
v 2.023809 6.892744 0.000000
v 2.502950 6.899815 0.000000
v 3.219648 6.606411 0.000000
v 2.500000 5.900000 0.000000
v 3.419836 6.312809 0.000000
v 3.057146 6.740243 0.000000
v 2.761903 6.869451 0.000000
v 2.909531 6.820070 0.000000
vt 0.363911 0.966712
vt 0.322581 0.940218
vt 0.322581 1.000000
vt 0.000000 1.000000
vt 0.000000 0.000000
vt 0.322581 0.000000
vt 0.677419 0.000000
vt 1.000000 0.000000
vt 0.476190 0.995096
vt 0.322581 0.855072
vt 0.380952 0.936170
vt 0.428571 0.986884
vt 0.997958 0.872340
vt 0.476190 0.855072
vt 0.990044 0.893617
vt 1.000000 0.851064
vt 0.714286 0.999207
vt 0.571429 1.000000
vt 0.523810 0.998948
vt 0.678371 0.999972
vt 0.909555 0.957447
vt 0.677419 0.855072
vt 0.974109 0.914894
vt 0.857143 0.976846
vt 0.761905 0.995574
vt 0.809524 0.988414
vn 0.000000 0.000000 -1.000000
vn 0.000000 0.000000 -1.000000
vn 0.000000 0.000000 -1.000000
vn 0.000000 0.000000 -1.000000
vn 0.000000 0.000000 -1.000000
vn 0.000000 0.000000 -1.000000
vn 0.000000 0.000000 -1.000000
vn 0.000000 0.000000 -1.000000
vn 0.000000 0.000000 -1.000000
vn 0.000000 0.000000 -1.000000
vn 0.000000 0.000000 -1.000000
vn 0.000000 0.000000 -1.000000
vn 0.000000 0.000000 -1.000000
vn 0.000000 0.000000 -1.000000
vn 0.000000 0.000000 -1.000000
vn 0.000000 0.000000 -1.000000
vn 0.000000 0.000000 -1.000000
vn 0.000000 0.000000 -1.000000
vn 0.000000 0.000000 -1.000000
vn 0.000000 0.000000 -1.000000
vn 0.000000 0.000000 -1.000000
vn 0.000000 0.000000 -1.000000
vn 0.000000 0.000000 -1.000000
vn 0.000000 0.000000 -1.000000
vn 0.000000 0.000000 -1.000000
vn 0.000000 0.000000 -1.000000
f 4/4/1 6/6/2 5/5/3
f 10/10/4 6/6/2 4/4/1
f 7/7/5 22/22/6 8/8/7
f 9/9/8 19/19/9 12/12/10
f 2/2/11 14/14/12 10/10/4
f 4/4/1 2/2/11 10/10/4
f 11/11/13 14/14/12 2/2/11
f 2/2/11 4/4/1 3/3/14
f 12/12/10 11/11/13 1/1/15
f 1/1/15 11/11/13 2/2/11
f 19/19/9 14/14/12 12/12/10
f 14/14/12 11/11/13 12/12/10
f 16/16/16 22/22/6 13/13/17
f 22/22/6 15/15/18 13/13/17
f 14/14/12 19/19/9 22/22/6
f 8/8/7 22/22/6 16/16/16
f 20/20/19 17/17/20 22/22/6
f 17/17/20 25/25/21 22/22/6
f 18/18/22 22/22/6 19/19/9
f 18/18/22 20/20/19 22/22/6
f 22/22/6 23/23/23 15/15/18
f 21/21/24 23/23/23 22/22/6
f 24/24/25 22/22/6 26/26/26
f 26/26/26 22/22/6 25/25/21
f 21/21/24 22/22/6 24/24/25
v 7.100000 4.671876 0.000000
v 7.100000 6.900000 0.000000
v 5.400000 1.000000 0.000000
v 7.100000 -0.000000 0.000000
v 7.100000 1.000000 0.000000
v 5.400000 3.807813 0.000000
v 5.400000 2.685939 0.000000
v 4.400000 -0.000000 0.000000
v 7.100000 3.543751 0.000000
v 4.400000 6.900000 0.000000
v 5.400000 5.900000 0.000000
v 7.100000 5.900000 0.000000
vt 1.000000 0.677083
vt 1.000000 1.000000
vt 0.370370 0.144928
vt 1.000000 0.000000
vt 1.000000 0.144928
vt 0.370370 0.551857
vt 0.370370 0.389266
vt 0.000000 0.000000
vt 1.000000 0.513587
vt 0.000000 1.000000
vt 0.370370 0.855072
vt 1.000000 0.855072
vn 0.000000 0.000000 -1.000000
vn 0.000000 0.000000 -1.000000
vn 0.000000 0.000000 -1.000000
vn 0.000000 0.000000 -1.000000
vn 0.000000 0.000000 -1.000000
vn 0.000000 0.000000 -1.000000
vn 0.000000 0.000000 -1.000000
vn 0.000000 0.000000 -1.000000
vn 0.000000 0.000000 -1.000000
vn 0.000000 0.000000 -1.000000
vn 0.000000 0.000000 -1.000000
vn 0.000000 0.000000 -1.000000
f 33/33/27 29/29/28 34/34/29
f 29/29/28 30/30/30 34/34/29
f 31/31/31 30/30/30 29/29/28
f 33/33/27 32/32/32 35/35/33
f 34/34/29 32/32/32 33/33/27
f 32/32/32 27/27/34 35/35/33
f 34/34/29 37/37/35 32/32/32
f 36/36/36 37/37/35 34/34/29
f 28/28/37 37/37/35 36/36/36
f 38/38/38 37/37/35 28/28/37
v 8.056251 0.240626 0.000000
v 10.371876 0.160938 0.000000
v 8.949256 -0.000504 0.000000
v 10.715625 0.110938 0.000000
v 12.045990 -0.000561 0.000000
v 13.100689 1.072374 0.000000
v 12.100000 6.900000 0.000000
v 7.900000 6.900000 0.000000
v 7.898925 1.532982 0.000000
v 7.899258 1.149623 0.000000
v 7.911142 0.766311 0.000000
v 7.992006 0.382696 0.000000
v 8.111836 0.191255 0.000000
v 8.284382 0.094443 0.000000
v 8.477036 0.037660 0.000000
v 7.938120 0.574434 0.000000
v 8.669698 0.009985 0.000000
v 9.054986 0.191227 0.000000
v 8.862341 0.000635 0.000000
v 7.901160 0.957954 0.000000
v 9.247637 0.000000 0.000000
v 8.900000 1.000000 0.000000
v 10.000000 1.000000 0.000000
v 10.018229 0.000627 0.000000
v 9.951338 -0.000450 0.000000
v 9.825591 0.191227 0.000000
v 10.210896 0.028923 0.000000
v 10.210894 0.191227 0.000000
v 10.403531 0.206878 0.000000
v 7.900000 2.299699 0.000000
v 11.000000 1.000000 0.000000
v 10.981505 0.000750 0.000000
v 10.478086 0.382880 0.000000
v 10.628125 0.271876 0.000000
v 10.788846 0.052952 0.000000
v 11.174150 -0.000049 0.000000
v 10.509376 0.553126 0.000000
v 13.091989 0.766265 0.000000
v 12.330054 0.007525 0.000000
v 12.100000 1.000000 0.000000
v 12.137403 0.000237 0.000000
v 13.021770 0.382922 0.000000
v 12.715346 0.077677 0.000000
v 12.522734 0.029727 0.000000
v 12.909923 0.191277 0.000000
v 12.907969 0.189316 0.000000
v 12.908010 0.382906 0.000000
v 13.069841 0.574567 0.000000
v 13.099821 0.957944 0.000000
v 13.100000 1.341303 0.000000
v 13.100000 6.900000 0.000000
v 8.900000 6.900000 0.000000
v 10.000000 6.900000 0.000000
v 11.000000 6.900000 0.000000
vt 0.030216 0.034937
vt 0.475393 0.023388
vt 0.201896 0.000037
vt 0.541479 0.016142
vt 0.797240 0.000000
vt 1.000000 0.155472
vt 0.807624 1.000000
vt 0.000177 1.000000
vt 0.000081 0.222222
vt 0.000035 0.166667
vt 0.002219 0.111111
vt 0.017974 0.055556
vt 0.040898 0.027778
vt 0.074074 0.013752
vt 0.111111 0.005520
vt 0.007650 0.083333
vt 0.148148 0.001488
vt 0.222222 0.027778
vt 0.185185 0.000118
vt 0.000321 0.138889
vt 0.259259 0.000066
vt 0.192426 0.144984
vt 0.403900 0.144984
vt 0.407407 0.000089
vt 0.394545 0.000015
vt 0.370370 0.027778
vt 0.444444 0.004258
vt 0.444444 0.027778
vt 0.481481 0.030045
vt 0.000177 0.333333
vt 0.596150 0.144984
vt 0.592593 0.000110
vt 0.495788 0.055556
vt 0.524657 0.039465
vt 0.555556 0.007739
vt 0.629630 0.000066
vt 0.501827 0.080223
vt 0.998334 0.111111
vt 0.851852 0.001152
vt 0.807624 0.144984
vt 0.814815 0.000077
vt 0.984841 0.055556
vt 0.925926 0.011317
vt 0.888889 0.004396
vt 0.963340 0.027778
vt 0.962963 0.027495
vt 0.962963 0.055556
vt 0.994053 0.083333
vt 0.999840 0.138889
vt 0.999873 0.194444
vt 0.999873 1.000000
vt 0.192426 1.000000
vt 0.403900 1.000000
vt 0.596150 1.000000
vn 0.000000 0.000000 -1.000000
vn 0.000000 0.000000 -1.000000
vn 0.000000 0.000000 -1.000000
vn 0.000000 0.000000 -1.000000
vn 0.000000 0.000000 -1.000000
vn 0.000000 0.000000 -1.000000
vn 0.000000 0.000000 -1.000000
vn 0.000000 0.000000 -1.000000
vn 0.000000 0.000000 -1.000000
vn 0.000000 0.000000 -1.000000
vn 0.000000 0.000000 -1.000000
vn 0.000000 0.000000 -1.000000
vn 0.000000 0.000000 -1.000000
vn 0.000000 0.000000 -1.000000
vn 0.000000 0.000000 -1.000000
vn 0.000000 0.000000 -1.000000
vn 0.000000 0.000000 -1.000000
vn 0.000000 0.000000 -1.000000
vn 0.000000 0.000000 -1.000000
vn 0.000000 0.000000 -1.000000
vn 0.000000 0.000000 -1.000000
vn 0.000000 0.000000 -1.000000
vn 0.000000 0.000000 -1.000000
vn 0.000000 0.000000 -1.000000
vn 0.000000 0.000000 -1.000000
vn 0.000000 0.000000 -1.000000
vn 0.000000 0.000000 -1.000000
vn 0.000000 0.000000 -1.000000
vn 0.000000 0.000000 -1.000000
vn 0.000000 0.000000 -1.000000
vn 0.000000 0.000000 -1.000000
vn 0.000000 0.000000 -1.000000
vn 0.000000 0.000000 -1.000000
vn 0.000000 0.000000 -1.000000
vn 0.000000 0.000000 -1.000000
vn 0.000000 0.000000 -1.000000
vn 0.000000 0.000000 -1.000000
vn 0.000000 0.000000 -1.000000
vn 0.000000 0.000000 -1.000000
vn 0.000000 0.000000 -1.000000
vn 0.000000 0.000000 -1.000000
vn 0.000000 0.000000 -1.000000
vn 0.000000 0.000000 -1.000000
vn 0.000000 0.000000 -1.000000
vn 0.000000 0.000000 -1.000000
vn 0.000000 0.000000 -1.000000
vn 0.000000 0.000000 -1.000000
vn 0.000000 0.000000 -1.000000
vn 0.000000 0.000000 -1.000000
vn 0.000000 0.000000 -1.000000
vn 0.000000 0.000000 -1.000000
vn 0.000000 0.000000 -1.000000
vn 0.000000 0.000000 -1.000000
vn 0.000000 0.000000 -1.000000
f 39/39/39 50/50/40 51/51/41
f 51/51/41 53/53/42 52/52/43
f 53/53/42 51/51/41 60/60/44
f 49/49/45 60/60/44 54/54/46
f 54/54/46 51/51/41 50/50/40
f 60/60/44 51/51/41 54/54/46
f 56/56/47 57/57/48 60/60/44
f 55/55/49 53/53/42 60/60/44
f 56/56/47 41/41/50 57/57/48
f 57/57/48 55/55/49 60/60/44
f 48/48/51 60/60/44 58/58/52
f 58/58/52 60/60/44 49/49/45
f 60/60/44 48/48/51 47/47/53
f 59/59/54 56/56/47 60/60/44
f 41/41/50 56/56/47 59/59/54
f 61/61/55 59/59/54 60/60/44
f 66/66/56 67/67/57 40/40/58
f 62/62/59 64/64/60 61/61/55
f 62/62/59 63/63/61 64/64/60
f 59/59/54 64/64/60 63/63/61
f 61/61/55 64/64/60 59/59/54
f 65/65/62 66/66/56 40/40/58
f 62/62/59 66/66/56 65/65/62
f 67/67/57 66/66/56 61/61/55
f 66/66/56 62/62/59 61/61/55
f 71/71/63 67/67/57 75/75/64
f 69/69/65 75/75/64 61/61/55
f 61/61/55 75/75/64 67/67/57
f 91/91/66 69/69/65 61/61/55
f 68/68/67 60/60/44 47/47/53
f 60/60/44 68/68/67 46/46/68
f 70/70/69 73/73/70 69/69/65
f 72/72/71 69/69/65 42/42/72
f 69/69/65 73/73/70 42/42/72
f 75/75/64 69/69/65 72/72/71
f 74/74/73 70/70/69 69/69/65
f 78/78/74 43/43/75 74/74/73
f 79/79/76 78/78/74 77/77/77
f 79/79/76 43/43/75 78/78/74
f 84/84/78 85/85/79 83/83/80
f 83/83/80 85/85/79 80/80/81
f 82/82/82 78/78/74 81/81/83
f 77/77/77 78/78/74 82/82/82
f 81/81/83 78/78/74 84/84/78
f 85/85/79 84/84/78 78/78/74
f 80/80/81 85/85/79 86/86/84
f 86/86/84 85/85/79 78/78/74
f 86/86/84 78/78/74 76/76/85
f 78/78/74 74/74/73 69/69/65
f 88/88/86 44/44/87 78/78/74
f 87/87/88 78/78/74 44/44/87
f 87/87/88 76/76/85 78/78/74
f 88/88/86 78/78/74 89/89/89
f 60/60/44 46/46/68 90/90/90
f 69/69/65 91/91/66 92/92/91
f 89/89/89 78/78/74 45/45/92
v 19.600000 5.135938 0.000000
v 16.656250 0.240626 0.000000
v 17.090460 0.034890 0.000000
v 16.777660 0.146695 0.000000
v 17.680944 -0.000910 0.000000
v 17.500000 1.000000 0.000000
v 16.502798 0.880714 0.000000
v 16.500000 1.321168 0.000000
v 19.600000 1.000000 0.000000
v 19.442188 0.240626 0.000000
v 19.157188 0.059737 0.000000
v 18.600000 1.000000 0.000000
v 19.600000 4.656251 0.000000
v 18.200001 2.789349 0.000000
v 18.200001 3.921875 0.000000
v 18.562502 2.996876 0.000000
v 18.562502 4.615625 0.000000
v 16.502518 6.019335 0.000000
v 16.563442 6.459820 0.000000
v 16.755230 6.753433 0.000000
v 16.942640 6.837881 0.000000
v 18.566664 6.900448 0.000000
v 17.500000 5.900000 0.000000
v 19.009521 6.865262 0.000000
v 19.596992 6.019331 0.000000
v 18.600000 5.900000 0.000000
v 19.524601 6.459825 0.000000
v 19.308313 6.753508 0.000000
vt 1.000000 0.744318
vt 0.050407 0.034899
vt 0.190476 0.005090
vt 0.089558 0.021277
vt 0.380952 0.000028
vt 0.322583 0.144946
vt 0.000901 0.127660
vt 0.000004 0.191489
vt 1.000000 0.144946
vt 0.949093 0.034899
vt 0.857143 0.008709
vt 0.677421 0.144946
vt 1.000000 0.674803
vt 0.548389 0.404255
vt 0.548389 0.568379
vt 0.665324 0.434330
vt 0.665324 0.668916
vt 0.000684 0.872340
vt 0.020487 0.936170
vt 0.082334 0.978723
vt 0.142857 0.990856
vt 0.666667 0.999985
vt 0.322583 0.855045
vt 0.809524 0.994929
vt 0.999171 0.872340
vt 0.677421 0.855045
vt 0.975658 0.936170
vt 0.905893 0.978723
vn 0.000000 0.000000 -1.000000
vn 0.000000 0.000000 -1.000000
vn 0.000000 0.000000 -1.000000
vn 0.000000 0.000000 -1.000000
vn 0.000000 0.000000 -1.000000
vn 0.000000 0.000000 -1.000000
vn 0.000000 0.000000 -1.000000
vn 0.000000 0.000000 -1.000000
vn 0.000000 0.000000 -1.000000
vn 0.000000 0.000000 -1.000000
vn 0.000000 0.000000 -1.000000
vn 0.000000 0.000000 -1.000000
vn 0.000000 0.000000 -1.000000
vn 0.000000 0.000000 -1.000000
vn 0.000000 0.000000 -1.000000
vn 0.000000 0.000000 -1.000000
vn 0.000000 0.000000 -1.000000
vn 0.000000 0.000000 -1.000000
vn 0.000000 0.000000 -1.000000
vn 0.000000 0.000000 -1.000000
vn 0.000000 0.000000 -1.000000
vn 0.000000 0.000000 -1.000000
vn 0.000000 0.000000 -1.000000
vn 0.000000 0.000000 -1.000000
vn 0.000000 0.000000 -1.000000
vn 0.000000 0.000000 -1.000000
vn 0.000000 0.000000 -1.000000
vn 0.000000 0.000000 -1.000000
f 95/95/93 96/96/94 98/98/95
f 96/96/94 94/94/96 98/98/95
f 99/99/97 98/98/95 94/94/96
f 97/97/98 95/95/93 98/98/95
f 99/99/97 100/100/99 98/98/95
f 97/97/98 98/98/95 104/104/100
f 97/97/98 104/104/100 103/103/101
f 102/102/102 103/103/101 104/104/100
f 102/102/102 104/104/100 101/101/103
f 105/105/104 101/101/103 104/104/100
f 105/105/104 104/104/100 108/108/105
f 106/106/106 107/107/107 108/108/105
f 98/98/95 100/100/99 115/115/108
f 107/107/107 105/105/104 108/108/105
f 110/110/109 115/115/108 100/100/99
f 111/111/110 115/115/108 110/110/109
f 111/111/110 112/112/111 115/115/108
f 112/112/111 113/113/112 115/115/108
f 113/113/112 114/114/113 115/115/108
f 118/118/114 115/115/108 114/114/113
f 109/109/115 118/118/114 93/93/116
f 118/118/114 117/117/117 93/93/116
f 114/114/113 116/116/118 118/118/114
f 117/117/117 118/118/114 119/119/119
f 116/116/118 120/120/120 118/118/114
f 119/119/119 118/118/114 120/120/120
v 21.500000 0.000000 0.000000
v 22.578125 6.899964 0.000000
v 21.526564 3.821875 0.000000
v 21.500000 5.900000 0.000000
v 20.500000 0.000000 0.000000
v 22.600000 0.000000 0.000000
v 23.600000 0.000000 0.000000
v 21.526564 2.698439 0.000000
v 20.500000 2.789362 0.000000
v 23.600000 4.257447 0.000000
v 22.551563 3.221875 0.000000
v 21.509737 5.138298 0.000000
v 21.385714 3.670213 0.000000
v 22.123810 4.126872 0.000000
v 22.551563 4.345313 0.000000
v 20.500141 5.872341 0.000000
v 20.534594 6.165954 0.000000
v 20.675879 6.459575 0.000000
v 20.942850 6.725159 0.000000
v 21.533333 6.899939 0.000000
v 21.238008 6.866185 0.000000
v 22.600000 5.900000 0.000000
v 23.600157 5.872346 0.000000
v 22.861944 6.869781 0.000000
v 23.568642 6.165811 0.000000
v 23.439220 6.459609 0.000000
v 23.157362 6.740445 0.000000
vt 0.322581 0.000000
vt 0.670363 1.000000
vt 0.331149 0.553895
vt 0.322581 0.855072
vt 0.000000 0.000000
vt 0.677419 0.000000
vt 1.000000 0.000000
vt 0.331149 0.391078
vt 0.000000 0.404255
vt 1.000000 0.617021
vt 0.661795 0.466938
vt 0.325721 0.744681
vt 0.285714 0.531915
vt 0.523810 0.598097
vt 0.661795 0.629756
vt 0.000069 0.851064
vt 0.011155 0.893617
vt 0.056735 0.936170
vt 0.142857 0.974659
vt 0.333333 1.000000
vt 0.238095 0.995053
vt 0.677419 0.855072
vt 0.999937 0.851064
vt 0.761905 0.995597
vt 0.990072 0.893617
vt 0.948119 0.936170
vt 0.857143 0.976828
vn 0.000000 0.000000 -1.000000
vn 0.000000 0.000000 -1.000000
vn 0.000000 0.000000 -1.000000
vn 0.000000 0.000000 -1.000000
vn 0.000000 0.000000 -1.000000
vn 0.000000 0.000000 -1.000000
vn 0.000000 0.000000 -1.000000
vn 0.000000 0.000000 -1.000000
vn 0.000000 0.000000 -1.000000
vn 0.000000 0.000000 -1.000000
vn 0.000000 0.000000 -1.000000
vn 0.000000 0.000000 -1.000000
vn 0.000000 0.000000 -1.000000
vn 0.000000 0.000000 -1.000000
vn 0.000000 0.000000 -1.000000
vn 0.000000 0.000000 -1.000000
vn 0.000000 0.000000 -1.000000
vn 0.000000 0.000000 -1.000000
vn 0.000000 0.000000 -1.000000
vn 0.000000 0.000000 -1.000000
vn 0.000000 0.000000 -1.000000
vn 0.000000 0.000000 -1.000000
vn 0.000000 0.000000 -1.000000
vn 0.000000 0.000000 -1.000000
vn 0.000000 0.000000 -1.000000
vn 0.000000 0.000000 -1.000000
vn 0.000000 0.000000 -1.000000
f 121/121/121 125/125/122 128/128/123
f 131/131/124 127/127/125 126/126/126
f 129/129/127 128/128/123 125/125/122
f 134/134/128 131/131/124 128/128/123
f 130/130/129 127/127/125 131/131/124
f 129/129/127 133/133/130 128/128/123
f 129/129/127 132/132/131 133/133/130
f 128/128/123 133/133/130 134/134/128
f 134/134/128 133/133/130 123/123/132
f 123/123/132 133/133/130 132/132/131
f 136/136/133 132/132/131 129/129/127
f 130/130/129 131/131/124 134/134/128
f 135/135/134 130/130/129 134/134/128
f 135/135/134 142/142/135 130/130/129
f 143/143/136 130/130/129 142/142/135
f 132/132/131 137/137/137 138/138/138
f 136/136/133 137/137/137 132/132/131
f 141/141/139 124/124/140 139/139/141
f 132/132/131 138/138/138 124/124/140
f 138/138/138 139/139/141 124/124/140
f 140/140/142 124/124/140 141/141/139
f 142/142/135 124/124/140 140/140/142
f 142/142/135 145/145/143 143/143/136
f 142/142/135 122/122/144 144/144/145
f 140/140/142 122/122/144 142/142/135
f 145/145/143 142/142/135 146/146/146
f 147/147/147 142/142/135 144/144/145
f 147/147/147 146/146/146 142/142/135
v 25.500000 -0.000000 0.000000
v 27.285938 6.759376 0.000000
v 27.600000 -0.000000 0.000000
v 28.700001 -0.000000 0.000000
v 29.700001 -0.000000 0.000000
v 26.992809 6.708873 0.000000
v 24.500000 -0.000000 0.000000
v 24.582428 6.517346 0.000000
v 24.530949 6.325580 0.000000
v 24.700670 6.708807 0.000000
v 24.885151 6.818302 0.000000
v 25.077808 6.868761 0.000000
v 26.618841 6.899792 0.000000
v 25.500000 5.900000 0.000000
v 26.600000 5.900000 0.000000
v 26.811403 6.862704 0.000000
v 26.600000 -0.000000 0.000000
v 27.600000 5.900000 0.000000
v 27.389326 6.855217 0.000000
v 27.109375 6.385939 0.000000
v 27.581980 6.898898 0.000000
v 29.689898 6.133830 0.000000
v 28.700001 5.900000 0.000000
v 29.122957 6.862669 0.000000
v 28.737673 6.899444 0.000000
v 29.603094 6.517148 0.000000
v 29.468756 6.708834 0.000000
vt 0.192278 0.000000
vt 0.535676 0.979540
vt 0.596063 0.000000
vt 0.807570 0.000000
vt 0.999848 0.000000
vt 0.479315 0.972222
vt 0.000000 0.000000
vt 0.015925 0.944444
vt 0.006022 0.916667
vt 0.038571 0.972222
vt 0.074074 0.988044
vt 0.111111 0.995345
vt 0.407407 0.999888
vt 0.192278 0.855003
vt 0.403785 0.855003
vt 0.444444 0.994535
vt 0.403785 0.000000
vt 0.596063 0.855003
vt 0.555556 0.993429
vt 0.501727 0.925423
vt 0.592593 0.999888
vt 0.997907 0.888889
vt 0.807570 0.855003
vt 0.888889 0.994486
vt 0.814815 0.999903
vt 0.981236 0.944444
vt 0.955392 0.972222
vn 0.000000 0.000000 -1.000000
vn 0.000000 0.000000 -1.000000
vn 0.000000 0.000000 -1.000000
vn 0.000000 0.000000 -1.000000
vn 0.000000 0.000000 -1.000000
vn 0.000000 0.000000 -1.000000
vn 0.000000 0.000000 -1.000000
vn 0.000000 0.000000 -1.000000
vn 0.000000 0.000000 -1.000000
vn 0.000000 0.000000 -1.000000
vn 0.000000 0.000000 -1.000000
vn 0.000000 0.000000 -1.000000
vn 0.000000 0.000000 -1.000000
vn 0.000000 0.000000 -1.000000
vn 0.000000 0.000000 -1.000000
vn 0.000000 0.000000 -1.000000
vn 0.000000 0.000000 -1.000000
vn 0.000000 0.000000 -1.000000
vn 0.000000 0.000000 -1.000000
vn 0.000000 0.000000 -1.000000
vn 0.000000 0.000000 -1.000000
vn 0.000000 0.000000 -1.000000
vn 0.000000 0.000000 -1.000000
vn 0.000000 0.000000 -1.000000
vn 0.000000 0.000000 -1.000000
vn 0.000000 0.000000 -1.000000
vn 0.000000 0.000000 -1.000000
f 161/161/148 148/148/149 154/154/150
f 170/170/151 152/152/152 151/151/153
f 153/153/154 162/162/155 163/163/156
f 161/161/148 154/154/150 156/156/157
f 156/156/157 155/155/158 161/161/148
f 155/155/158 157/157/159 161/161/148
f 157/157/159 159/159/160 161/161/148
f 158/158/161 159/159/160 157/157/159
f 160/160/162 161/161/148 159/159/160
f 162/162/155 161/161/148 160/160/162
f 167/167/163 162/162/155 153/153/154
f 160/160/162 163/163/156 162/162/155
f 164/164/164 162/162/155 165/165/165
f 164/164/164 165/165/165 150/150/166
f 168/168/167 167/167/163 166/166/168
f 165/165/165 162/162/155 167/167/163
f 166/166/168 167/167/163 149/149/169
f 172/172/170 167/167/163 168/168/167
f 169/169/171 152/152/152 170/170/151
f 172/172/170 171/171/172 170/170/151
f 173/173/173 170/170/151 171/171/172
f 167/167/163 170/170/151 165/165/165
f 172/172/170 170/170/151 167/167/163
f 169/169/171 170/170/151 173/173/173
f 174/174/174 173/173/173 171/171/172
v 33.299999 4.671876 0.000000
v 33.299999 5.900000 0.000000
v 33.299999 -0.000000 0.000000
v 31.600000 1.000000 0.000000
v 33.299999 1.000000 0.000000
v 31.600000 2.685939 0.000000
v 30.600000 -0.000000 0.000000
v 33.299999 3.543751 0.000000
v 31.600000 3.807813 0.000000
v 31.600000 5.900000 0.000000
v 30.600000 6.900000 0.000000
v 33.299999 6.900000 0.000000
vt 1.000000 0.677083
vt 1.000000 0.855072
vt 1.000000 0.000000
vt 0.370370 0.144928
vt 1.000000 0.144928
vt 0.370370 0.389266
vt 0.000000 0.000000
vt 1.000000 0.513587
vt 0.370370 0.551857
vt 0.370370 0.855072
vt 0.000000 1.000000
vt 1.000000 1.000000
vn 0.000000 0.000000 -1.000000
vn 0.000000 0.000000 -1.000000
vn 0.000000 0.000000 -1.000000
vn 0.000000 0.000000 -1.000000
vn 0.000000 0.000000 -1.000000
vn 0.000000 0.000000 -1.000000
vn 0.000000 0.000000 -1.000000
vn 0.000000 0.000000 -1.000000
vn 0.000000 0.000000 -1.000000
vn 0.000000 0.000000 -1.000000
vn 0.000000 0.000000 -1.000000
vn 0.000000 0.000000 -1.000000
f 178/178/175 181/181/176 180/180/177
f 178/178/175 177/177/178 181/181/176
f 179/179/179 177/177/178 178/178/175
f 181/181/176 183/183/180 180/180/177
f 183/183/180 182/182/181 180/180/177
f 181/181/176 184/184/182 183/183/180
f 175/175/183 182/182/181 183/183/180
f 185/185/184 184/184/182 181/181/176
f 176/176/185 185/185/184 186/186/186
f 185/185/184 176/176/185 184/184/182
